<?xml version="1.0" encoding="UTF-8" standalone="no"?>
<svg width="46px" height="39px" viewBox="0 0 46 39" version="1.1" xmlns="http://www.w3.org/2000/svg" xmlns:xlink="http://www.w3.org/1999/xlink">
    <!-- Generator: Sketch 39.1 (31720) - http://www.bohemiancoding.com/sketch -->
    <title>logo</title>
    <desc>Created with Sketch.</desc>
    <defs></defs>
    <g id="Page-1" stroke="none" stroke-width="1" fill="none" fill-rule="evenodd">
        <g id="view" transform="translate(-80.000000, -21.000000)" fill="#48CFAD">
            <g id="navigation">
                <path d="M109.635127,45.261421 C109.635127,45.9063946 109.114639,46.4295843 108.472105,46.4295843 L108.4051,46.4295843 C107.762566,46.4295843 107.242077,45.9063946 107.242077,45.261421 L107.242077,35.107294 C107.242077,34.5015797 107.730658,34.010839 108.333707,34.010839 L108.472105,34.010839 C109.114639,34.010839 109.635127,34.5336281 109.635127,35.1786017 L109.635127,45.261421 Z M105.247869,42.4884354 C105.247869,43.9189947 104.729375,45.0074376 103.876652,45.7537642 C103.023929,46.5004913 101.832988,46.8738549 100.395563,46.8738549 C98.9689062,46.8738549 97.8130633,46.5004913 96.9655249,45.7537642 C96.1179865,45.0074376 95.6756712,43.9189947 95.6756712,42.4884354 L95.6756712,35.1737944 C95.6756712,34.5340287 96.1969572,34.010839 96.8339072,34.010839 L96.8578377,34.010839 C97.5239032,34.010839 98.0687208,34.558065 98.0687208,35.2270748 L98.0687208,42.4884354 C98.0687208,43.3297052 98.2505925,43.9502419 98.6578098,44.3508466 C99.0658248,44.7514512 99.6257984,44.951353 100.360863,44.951353 C101.111483,44.951353 101.760399,44.7514512 102.170807,44.3508466 C102.581215,43.9502419 102.85482,43.3297052 102.85482,42.4884354 L102.85482,35.0335828 C102.85482,34.4687302 103.310696,34.010839 103.873062,34.010839 L104.079662,34.010839 C104.722196,34.010839 105.247869,34.538836 105.247869,35.1842101 L105.247869,42.4884354 Z M93.6814632,42.9435223 C93.6814632,44.1733787 93.2985753,45.1360317 92.5746778,45.8310809 C91.8507803,46.52613 90.9015373,46.8738549 89.7484863,46.8738549 C88.4989155,46.8738549 87.5173664,46.560582 86.8150063,45.9340363 C86.4289277,45.5899169 86.1465478,45.2197581 85.9726529,44.6825472 C85.7389317,43.9618594 86.2965123,43.2247468 87.0511206,43.2247468 L87.0906059,43.2247468 C87.6186721,43.2247468 88.0625828,43.5844898 88.2241137,44.0896523 C88.2899225,44.2955631 88.3828526,44.4329705 88.5033028,44.5627664 C88.7689313,44.8487982 89.180137,44.9717838 89.7381164,44.9717838 C90.2370672,44.9717838 90.6167644,44.7915117 90.8875779,44.4509977 C91.1579925,44.1104837 91.2884137,43.6013152 91.2884137,42.9435223 L91.2884137,35.1970295 C91.2884137,34.5444444 91.8200695,34.010839 92.4693836,34.010839 L92.5459612,34.010839 C93.1705471,34.010839 93.6814632,34.5240136 93.6814632,35.1509599 L93.6814632,42.9435223 Z M99.244107,21 C88.6157761,21 80,29.654263 80,40.3291761 C80,51.0044898 88.6157761,59.6583522 99.244107,59.6583522 C109.872039,59.6583522 118.488214,51.0044898 118.488214,40.3291761 C118.488214,29.654263 109.872039,21 99.244107,21 Z M121.934963,49.4195374 C119.703843,49.4195374 117.895495,51.2358791 117.895495,53.4768617 C117.895495,55.7174437 119.703843,57.5341859 121.934963,57.5341859 C124.166083,57.5341859 125.974431,55.7174437 125.974431,53.4768617 C125.974431,51.2358791 124.166083,49.4195374 121.934963,49.4195374 Z" id="logo"></path>
            </g>
        </g>
    </g>
</svg>