<?xml version="1.0" encoding="utf-8"?>
<!-- Generator: Adobe Illustrator 19.0.1, SVG Export Plug-In . SVG Version: 6.00 Build 0)  -->
<!DOCTYPE svg PUBLIC "-//W3C//DTD SVG 1.1//EN" "http://www.w3.org/Graphics/SVG/1.1/DTD/svg11.dtd">
<svg version="1.1" id="레이어_1" xmlns="http://www.w3.org/2000/svg" xmlns:xlink="http://www.w3.org/1999/xlink" x="0px"
	 y="0px" viewBox="0 0 500 500" style="enable-background:new 0 0 500 500;" xml:space="preserve">
<style type="text/css">
	.st0{fill:#8772BF;}
	.st1{fill:#FFFFFF;}
</style>
<g>
	<circle class="st0" cx="446.8" cy="379.7" r="41.9"/>
	<path class="st1" d="M153.6,270.8c0,12.7-4,22.7-11.5,29.8c-7.5,7.2-17.4,10.8-29.3,10.8c-13,0-23.2-3.2-30.4-9.7
		c-4-3.6-6.9-7.4-8.7-12.9c-2.4-7.4,3.4-15.1,11.2-15.1h0.4c5.5,0,10.1,3.7,11.8,8.9c0.7,2.1,1.6,3.5,2.9,4.9c2.8,3,7,4.2,12.8,4.2
		c5.2,0,9.1-1.9,11.9-5.4c2.8-3.5,4.2-8.8,4.2-15.6v-80c0-6.7,5.5-12.3,12.3-12.3h0.8c6.5,0,11.8,5.3,11.8,11.8V270.8z M273.6,266.1
		c0,14.8-5.4,26-14.2,33.7c-8.8,7.7-21.2,11.6-36.1,11.6c-14.8,0-26.8-3.9-35.6-11.6c-8.8-7.7-13.4-19-13.4-33.7v-75.6
		c0-6.6,5.4-12,12-12h0.2c6.9,0,12.6,5.7,12.6,12.6v75c0,8.7,1.9,15.1,6.1,19.2c4.2,4.1,10,6.2,17.7,6.2c7.8,0,14.5-2.1,18.8-6.2
		c4.3-4.1,7.1-10.6,7.1-19.2v-77c0-5.8,4.7-10.6,10.6-10.6h2.1c6.7,0,12.1,5.5,12.1,12.1V266.1z M319.2,294.8
		c0,6.7-5.4,12.1-12.1,12.1h-0.7c-6.7,0-12.1-5.4-12.1-12.1V189.9c0-6.3,5.1-11.3,11.3-11.3h1.4c6.7,0,12.1,5.4,12.1,12.1V294.8z"/>
	<path class="st1" d="M211.8,444.4c-110.5,0-200.4-89.9-200.4-200.4c0-110.5,89.9-200.4,200.4-200.4c110.5,0,200.4,89.9,200.4,200.4
		C412.2,354.5,322.3,444.4,211.8,444.4z M211.8,54c-104.8,0-190,85.2-190,190s85.2,190,190,190c104.8,0,190-85.2,190-190
		S316.6,54,211.8,54z"/>
</g>
</svg>
