<?xml version="1.0" encoding="UTF-8" standalone="no"?>
<svg width="21px" height="16px" viewBox="0 0 21 16" version="1.1" xmlns="http://www.w3.org/2000/svg" xmlns:xlink="http://www.w3.org/1999/xlink">
    <!-- Generator: Sketch 39.1 (31720) - http://www.bohemiancoding.com/sketch -->
    <title>chart</title>
    <desc>Created with Sketch.</desc>
    <defs></defs>
    <g id="Page-1" stroke="none" stroke-width="1" fill="none" fill-rule="evenodd">
        <path d="M3.34709639,8.65646652 C3.24816867,8.55706703 3.24816867,8.39614664 3.34709639,8.29700137 C3.4460241,8.19760188 3.60618072,8.19760188 3.70485542,8.29700137 C3.80378313,8.39614664 3.80378313,8.55706703 3.70485542,8.65646652 C3.60618072,8.755866 3.4460241,8.755866 3.34709639,8.65646652 L3.34709639,8.65646652 Z M3.70536145,9.05991149 C3.80403614,9.15931098 3.80403614,9.32023138 3.70536145,9.41937664 C3.60643373,9.51877613 3.44627711,9.51877613 3.3473494,9.41937664 C3.2486747,9.32023138 3.2486747,9.15931098 3.3473494,9.05991149 C3.44627711,8.96076622 3.60643373,8.96076622 3.70536145,9.05991149 L3.70536145,9.05991149 Z M4.10613253,7.89559014 C4.00720482,7.79644487 4.00720482,7.63552448 4.10613253,7.53612499 C4.20506024,7.43697972 4.36521687,7.43697972 4.46389157,7.53612499 C4.56281928,7.63552448 4.56281928,7.79644487 4.46389157,7.89559014 C4.36521687,7.99498963 4.20506024,7.99498963 4.10613253,7.89559014 L4.10613253,7.89559014 Z M4.46439759,8.29649293 C4.56307229,8.39589242 4.56307229,8.55681281 4.46439759,8.6562123 C4.36546988,8.75535757 4.20531325,8.75535757 4.10638554,8.6562123 C4.00771084,8.55681281 4.00771084,8.39589242 4.10638554,8.29649293 C4.20531325,8.19734766 4.36546988,8.19734766 4.46439759,8.29649293 L4.46439759,8.29649293 Z M4.4646506,9.05965727 C4.5633253,9.15880254 4.5633253,9.31972294 4.4646506,9.41912242 C4.36572289,9.51852191 4.20556627,9.51852191 4.10689157,9.41912242 C4.00796386,9.31972294 4.00796386,9.15880254 4.10689157,9.05965727 C4.20556627,8.96025779 4.36572289,8.96025779 4.4646506,9.05965727 L4.4646506,9.05965727 Z M4.86516867,7.1324258 C4.76624096,7.03302631 4.76624096,6.87210592 4.86516867,6.77296065 C4.96409639,6.67356116 5.12425301,6.67356116 5.22292771,6.77296065 C5.32185542,6.87210592 5.32185542,7.03302631 5.22292771,7.1324258 C5.12425301,7.23157107 4.96409639,7.23157107 4.86516867,7.1324258 L4.86516867,7.1324258 Z M5.22343373,7.53587077 C5.32210843,7.63501604 5.32210843,7.79619066 5.22343373,7.89533592 C5.12450602,7.99473541 4.9643494,7.99473541 4.86542169,7.89533592 C4.76674699,7.79619066 4.76674699,7.63501604 4.86542169,7.53587077 C4.9643494,7.43647129 5.12450602,7.43647129 5.22343373,7.53587077 L5.22343373,7.53587077 Z M5.22368675,8.2987809 C5.32236145,8.39818038 5.32236145,8.55910078 5.22368675,8.65824605 C5.12475904,8.75764554 4.96460241,8.75764554 4.86592771,8.65824605 C4.767,8.55910078 4.767,8.39818038 4.86592771,8.2987809 C4.96460241,8.19963563 5.12475904,8.19963563 5.22368675,8.2987809 L5.22368675,8.2987809 Z M5.22393976,9.05914884 C5.32286747,9.15854832 5.32286747,9.31946872 5.22393976,9.41886821 C5.12526506,9.51801347 4.96485542,9.51801347 4.86618072,9.41886821 C4.76725301,9.31946872 4.76725301,9.15854832 4.86618072,9.05914884 C4.96485542,8.96000357 5.12526506,8.96000357 5.22393976,9.05914884 L5.22393976,9.05914884 Z M5.22419277,9.82231318 C5.32312048,9.92145845 5.32312048,10.0823788 5.22419277,10.1817783 C5.12551807,10.2811778 4.96536145,10.2811778 4.86643373,10.1817783 C4.76775904,10.0823788 4.76775904,9.92145845 4.86643373,9.82231318 C4.96536145,9.72291369 5.12551807,9.72291369 5.22419277,9.82231318 L5.22419277,9.82231318 Z M5.62420482,6.36900724 C5.52527711,6.26986197 5.52527711,6.10868735 5.62420482,6.00954209 C5.72313253,5.9101426 5.88328916,5.9101426 5.98196386,6.00954209 C6.08089157,6.10868735 6.08089157,6.26986197 5.98196386,6.36900724 C5.88328916,6.46840672 5.72313253,6.46840672 5.62420482,6.36900724 L5.62420482,6.36900724 Z M5.98246988,6.77245221 C6.08114458,6.8718517 6.08114458,7.03277209 5.98246988,7.13191736 C5.88354217,7.23131685 5.72338554,7.23131685 5.62445783,7.13191736 C5.52578313,7.03277209 5.52578313,6.8718517 5.62445783,6.77245221 C5.72338554,6.67330694 5.88354217,6.67330694 5.98246988,6.77245221 L5.98246988,6.77245221 Z M5.98272289,7.53561655 C6.08139759,7.63476182 6.08139759,7.79568222 5.98272289,7.89508171 C5.88379518,7.99422697 5.72363855,7.99422697 5.62496386,7.89508171 C5.52603614,7.79568222 5.52603614,7.63476182 5.62496386,7.53561655 C5.72363855,7.43621707 5.88379518,7.43621707 5.98272289,7.53561655 L5.98272289,7.53561655 Z M5.9829759,8.29852668 C6.08190361,8.39767195 6.08190361,8.55884656 5.9829759,8.65799183 C5.8843012,8.75739132 5.72389157,8.75739132 5.62521687,8.65799183 C5.52628916,8.55884656 5.52628916,8.39767195 5.62521687,8.29852668 C5.72389157,8.19912719 5.8843012,8.19912719 5.9829759,8.29852668 L5.9829759,8.29852668 Z M6.38349398,6.36875302 C6.28481928,6.26935353 6.28481928,6.10843314 6.38349398,6.00928787 C6.48242169,5.90988838 6.64257831,5.90988838 6.74150602,6.00928787 C6.84018072,6.10843314 6.84018072,6.26935353 6.74150602,6.36875302 C6.64257831,6.46789829 6.48242169,6.46789829 6.38349398,6.36875302 L6.38349398,6.36875302 Z M6.74175904,6.77219799 C6.84043373,6.87134326 6.84043373,7.03251788 6.74175904,7.13166314 C6.64283133,7.23106263 6.4826747,7.23106263 6.384,7.13166314 C6.28507229,7.03251788 6.28507229,6.87134326 6.384,6.77219799 C6.4826747,6.67279851 6.64283133,6.67279851 6.74175904,6.77219799 L6.74175904,6.77219799 Z M6.74201205,7.53510812 C6.84093976,7.6345076 6.84093976,7.795428 6.74201205,7.89457327 C6.64333735,7.99397275 6.48292771,7.99397275 6.38425301,7.89457327 C6.2853253,7.795428 6.2853253,7.6345076 6.38425301,7.53510812 C6.48292771,7.43596285 6.64333735,7.43596285 6.74201205,7.53510812 L6.74201205,7.53510812 Z M7.14328916,7.13140892 C7.04436145,7.03200944 7.04436145,6.87108904 7.14328916,6.77194377 C7.24196386,6.67254429 7.40237349,6.67254429 7.50104819,6.77194377 C7.5999759,6.87108904 7.5999759,7.03200944 7.50104819,7.13140892 C7.40237349,7.23055419 7.24196386,7.23055419 7.14328916,7.13140892 L7.14328916,7.13140892 Z M7.90257831,7.13090049 C7.80390361,7.03175522 7.80390361,6.87083482 7.90257831,6.77143534 C8.00150602,6.67229007 8.16166265,6.67229007 8.26033735,6.77143534 C8.35926506,6.87083482 8.35926506,7.03175522 8.26033735,7.13090049 C8.16166265,7.23029997 8.00150602,7.23029997 7.90257831,7.13090049 L7.90257831,7.13090049 Z M8.65959036,7.13064627 C8.56066265,7.031501 8.56066265,6.87032639 8.65959036,6.77118112 C8.75826506,6.67178163 8.91842169,6.67178163 9.0173494,6.77118112 C9.1160241,6.87032639 9.1160241,7.031501 9.0173494,7.13064627 C8.91842169,7.23004576 8.75826506,7.23004576 8.65959036,7.13064627 L8.65959036,7.13064627 Z M9.41887952,7.13293424 C9.31995181,7.03353475 9.31995181,6.87261435 9.41887952,6.77346909 C9.51755422,6.6740696 9.67796386,6.6740696 9.77663855,6.77346909 C9.87556627,6.87261435 9.87556627,7.03353475 9.77663855,7.13293424 C9.67796386,7.2320795 9.51755422,7.2320795 9.41887952,7.13293424 L9.41887952,7.13293424 Z M9.77689157,7.53383702 C9.87581928,7.63298229 9.87581928,7.79415691 9.77689157,7.89330217 C9.67821687,7.99270166 9.51806024,7.99270166 9.41913253,7.89330217 C9.32045783,7.79415691 9.32045783,7.63298229 9.41913253,7.53383702 C9.51806024,7.43443754 9.67821687,7.43443754 9.77689157,7.53383702 L9.77689157,7.53383702 Z M10.1779157,6.36951567 C10.078988,6.27037041 10.078988,6.10919579 10.1779157,6.01005052 C10.2765904,5.91065104 10.437,5.91065104 10.5356747,6.01005052 C10.6346024,6.10919579 10.6346024,6.27037041 10.5356747,6.36951567 C10.437,6.46891516 10.2765904,6.46891516 10.1779157,6.36951567 L10.1779157,6.36951567 Z M10.5359277,6.77296065 C10.6348554,6.87236014 10.6348554,7.03328053 10.5359277,7.1324258 C10.437253,7.23182529 10.2770964,7.23182529 10.1781687,7.1324258 C10.079494,7.03328053 10.079494,6.87236014 10.1781687,6.77296065 C10.2770964,6.67381538 10.437253,6.67381538 10.5359277,6.77296065 L10.5359277,6.77296065 Z M10.5364337,7.53612499 C10.6351084,7.63527026 10.6351084,7.79619066 10.5364337,7.89559014 C10.437506,7.99473541 10.2773494,7.99473541 10.1786747,7.89559014 C10.079747,7.79619066 10.079747,7.63527026 10.1786747,7.53612499 C10.2773494,7.43672551 10.437506,7.43672551 10.5364337,7.53612499 L10.5364337,7.53612499 Z M10.9369518,5.60635133 C10.8380241,5.50695184 10.8380241,5.34603145 10.9369518,5.24663196 C11.0356265,5.14748669 11.1960361,5.14748669 11.2947108,5.24663196 C11.3936386,5.34603145 11.3936386,5.50695184 11.2947108,5.60635133 C11.1960361,5.7054966 11.0356265,5.7054966 10.9369518,5.60635133 L10.9369518,5.60635133 Z M11.2949639,6.00979631 C11.3938916,6.10894157 11.3938916,6.26986197 11.2949639,6.36926146 C11.1962892,6.46840672 11.0361325,6.46840672 10.9372048,6.36926146 C10.8385301,6.26986197 10.8385301,6.10894157 10.9372048,6.00979631 C11.0361325,5.91039682 11.1962892,5.91039682 11.2949639,6.00979631 L11.2949639,6.00979631 Z M11.2954699,6.77270643 C11.3941446,6.8718517 11.3941446,7.03302631 11.2954699,7.13217158 C11.1965422,7.23157107 11.0363855,7.23157107 10.9377108,7.13217158 C10.8387831,7.03302631 10.8387831,6.8718517 10.9377108,6.77270643 C11.0363855,6.67330694 11.1965422,6.67330694 11.2954699,6.77270643 L11.2954699,6.77270643 Z M11.2957229,7.53561655 C11.3946506,7.63501604 11.3946506,7.79593644 11.2957229,7.89508171 C11.1970482,7.99448119 11.0366386,7.99448119 10.9379639,7.89508171 C10.8390361,7.79593644 10.8390361,7.63501604 10.9379639,7.53561655 C11.0366386,7.43647129 11.1970482,7.43647129 11.2957229,7.53561655 L11.2957229,7.53561655 Z M11.695988,4.84293277 C11.5970602,4.74353328 11.5970602,4.58261289 11.695988,4.48346762 C11.7946627,4.38406813 11.9550723,4.38406813 12.053747,4.48346762 C12.1526747,4.58261289 12.1526747,4.74353328 12.053747,4.84293277 C11.9550723,4.94207804 11.7946627,4.94207804 11.695988,4.84293277 L11.695988,4.84293277 Z M12.054,5.24637774 C12.1529277,5.34577723 12.1529277,5.50669763 12.054,5.60584289 C11.9553253,5.70524238 11.7951687,5.70524238 11.696241,5.60584289 C11.5975663,5.50669763 11.5975663,5.34577723 11.696241,5.24637774 C11.7951687,5.14697826 11.9553253,5.14697826 12.054,5.24637774 L12.054,5.24637774 Z M12.054506,6.00928787 C12.1531807,6.10868735 12.1531807,6.26960775 12.054506,6.36900724 C11.9555783,6.4681525 11.7954217,6.4681525 11.696747,6.36900724 C11.5978193,6.26960775 11.5978193,6.10868735 11.696747,6.00928787 C11.7954217,5.9101426 11.9555783,5.9101426 12.054506,6.00928787 L12.054506,6.00928787 Z M12.054759,6.77245221 C12.1536867,6.87159748 12.1536867,7.03251788 12.054759,7.13191736 C11.9560843,7.23106263 11.7956747,7.23106263 11.697,7.13191736 C11.5980723,7.03251788 11.5980723,6.87159748 11.697,6.77245221 C11.7956747,6.67305273 11.9560843,6.67305273 12.054759,6.77245221 L12.054759,6.77245221 Z M12.055012,7.53536234 C12.1539398,7.6345076 12.1539398,7.79568222 12.055012,7.89482749 C11.9563373,7.99422697 11.7961807,7.99422697 11.697253,7.89482749 C11.5985783,7.79568222 11.5985783,7.6345076 11.697253,7.53536234 C11.7961807,7.43596285 11.9563373,7.43596285 12.055012,7.53536234 L12.055012,7.53536234 Z M12.4552771,4.84522074 C12.3566024,4.74582125 12.3566024,4.58490085 12.4552771,4.48550137 C12.5542048,4.3863561 12.7143614,4.3863561 12.8130361,4.48550137 C12.9119639,4.58490085 12.9119639,4.74582125 12.8130361,4.84522074 C12.7143614,4.944366 12.5542048,4.944366 12.4552771,4.84522074 L12.4552771,4.84522074 Z M12.8135422,5.24612352 C12.9122169,5.34526879 12.9122169,5.50618919 12.8135422,5.60558868 C12.7146145,5.70473394 12.5544578,5.70473394 12.4557831,5.60558868 C12.3568554,5.50618919 12.3568554,5.34526879 12.4557831,5.24612352 C12.5544578,5.14672404 12.7146145,5.14672404 12.8135422,5.24612352 L12.8135422,5.24612352 Z M12.8137952,6.00903365 C12.9127229,6.10843314 12.9127229,6.26935353 12.8137952,6.3684988 C12.7151205,6.46789829 12.5547108,6.46789829 12.4560361,6.3684988 C12.3571084,6.26935353 12.3571084,6.10843314 12.4560361,6.00903365 C12.5547108,5.90963416 12.7151205,5.90963416 12.8137952,6.00903365 L12.8137952,6.00903365 Z M12.8140482,6.77194377 C12.9129759,6.87134326 12.9129759,7.03226366 12.8140482,7.13166314 C12.7153735,7.23080841 12.5552169,7.23080841 12.4562892,7.13166314 C12.3576145,7.03226366 12.3576145,6.87134326 12.4562892,6.77194377 C12.5552169,6.67279851 12.7153735,6.67279851 12.8140482,6.77194377 L12.8140482,6.77194377 Z M13.2148193,4.8447123 C13.1158916,4.74556703 13.1158916,4.58464664 13.2148193,4.48524715 C13.313494,4.38610188 13.4736506,4.38610188 13.5725783,4.48524715 C13.671253,4.58464664 13.671253,4.74556703 13.5725783,4.8447123 C13.4736506,4.94411179 13.313494,4.94411179 13.2148193,4.8447123 L13.2148193,4.8447123 Z M13.5728313,5.24815727 C13.671759,5.34755676 13.671759,5.50847716 13.5728313,5.60787664 C13.4741566,5.70702191 13.313747,5.70702191 13.2150723,5.60787664 C13.1161446,5.50847716 13.1161446,5.34755676 13.2150723,5.24815727 C13.313747,5.14901201 13.4741566,5.14901201 13.5728313,5.24815727 L13.5728313,5.24815727 Z M13.5730843,6.00877943 C13.672012,6.1079247 13.672012,6.26884509 13.5730843,6.36824458 C13.4744096,6.46738985 13.314253,6.46738985 13.2153253,6.36824458 C13.1166506,6.26884509 13.1166506,6.1079247 13.2153253,6.00877943 C13.314253,5.90937994 13.4744096,5.90937994 13.5730843,6.00877943 L13.5730843,6.00877943 Z M13.5735904,6.77168956 C13.6722651,6.87108904 13.6722651,7.03200944 13.5735904,7.13115471 C13.4746627,7.23055419 13.314506,7.23055419 13.2158313,7.13115471 C13.1169036,7.03200944 13.1169036,6.87108904 13.2158313,6.77168956 C13.314506,6.67229007 13.4746627,6.67229007 13.5735904,6.77168956 L13.5735904,6.77168956 Z M13.9743614,5.60736821 C13.8756867,5.50822294 13.8756867,5.34730254 13.9743614,5.24790306 C14.0732892,5.14875779 14.2334458,5.14875779 14.3321205,5.24790306 C14.4310482,5.34730254 14.4310482,5.50822294 14.3321205,5.60736821 C14.2334458,5.70676769 14.0732892,5.70676769 13.9743614,5.60736821 L13.9743614,5.60736821 Z M14.3326265,6.01081318 C14.4313012,6.11021267 14.4313012,6.27113306 14.3326265,6.37053255 C14.2336988,6.46967782 14.0735422,6.46967782 13.9748675,6.37053255 C13.8759398,6.27113306 13.8759398,6.11021267 13.9748675,6.01081318 C14.0735422,5.91166791 14.2336988,5.91166791 14.3326265,6.01081318 L14.3326265,6.01081318 Z M14.7339036,5.60711399 C14.6349759,5.5077145 14.6349759,5.3467941 14.7339036,5.24764884 C14.8325783,5.14824935 14.9927349,5.14824935 15.0916627,5.24764884 C15.1903373,5.3467941 15.1903373,5.5077145 15.0916627,5.60711399 C14.9927349,5.70625925 14.8325783,5.70625925 14.7339036,5.60711399 L14.7339036,5.60711399 Z M15.4931928,5.60685977 C15.3942651,5.50746028 15.3942651,5.34653989 15.4931928,5.2471404 C15.5918675,5.14799513 15.7522771,5.14799513 15.8509518,5.2471404 C15.9498795,5.34653989 15.9498795,5.50746028 15.8509518,5.60685977 C15.7522771,5.70600504 15.5918675,5.70600504 15.4931928,5.60685977 L15.4931928,5.60685977 Z M16.2522289,4.84344121 C16.1533012,4.74404172 16.1533012,4.58312132 16.2522289,4.48397606 C16.3509036,4.38457657 16.5113133,4.38457657 16.609988,4.48397606 C16.7089157,4.58312132 16.7089157,4.74404172 16.609988,4.84344121 C16.5113133,4.94258647 16.3509036,4.94258647 16.2522289,4.84344121 L16.2522289,4.84344121 Z M16.2499518,5.60635133 C16.1512771,5.50720606 16.1512771,5.34628567 16.2499518,5.24688618 C16.3488795,5.14774091 16.5090361,5.14774091 16.6077108,5.24688618 C16.7066386,5.34628567 16.7066386,5.50720606 16.6077108,5.60635133 C16.5090361,5.70575082 16.3488795,5.70575082 16.2499518,5.60635133 L16.2499518,5.60635133 Z M17.0112651,4.08002264 C16.9123373,3.98087738 16.9123373,3.81995698 17.0112651,3.72055749 C17.1099398,3.62141223 17.2703494,3.62141223 17.3690241,3.72055749 C17.4679518,3.81995698 17.4679518,3.98087738 17.3690241,4.08002264 C17.2703494,4.17942213 17.1099398,4.17942213 17.0112651,4.08002264 L17.0112651,4.08002264 Z M17.008988,4.84318699 C16.9103133,4.7437875 16.9103133,4.58286711 17.008988,4.48346762 C17.1079157,4.38432235 17.2680723,4.38432235 17.366747,4.48346762 C17.4656747,4.58286711 17.4656747,4.7437875 17.366747,4.84318699 C17.2680723,4.94233226 17.1079157,4.94233226 17.008988,4.84318699 L17.008988,4.84318699 Z M17.009241,5.60609711 C16.9105663,5.50669763 16.9105663,5.34577723 17.009241,5.24663196 C17.1081687,5.14723248 17.2683253,5.14723248 17.367253,5.24663196 C17.4659277,5.34577723 17.4659277,5.50669763 17.367253,5.60609711 C17.2683253,5.70524238 17.1081687,5.70524238 17.009241,5.60609711 L17.009241,5.60609711 Z M17.367506,6.00954209 C17.4664337,6.10894157 17.4664337,6.26986197 17.367506,6.36900724 C17.2685783,6.46840672 17.1084217,6.46840672 17.009747,6.36900724 C16.9108193,6.26986197 16.9108193,6.10894157 17.009747,6.00954209 C17.1084217,5.91039682 17.2685783,5.91039682 17.367506,6.00954209 L17.367506,6.00954209 Z M17.7703012,3.31940049 C17.6713735,3.220001 17.6713735,3.0590806 17.7703012,2.95968112 C17.8689759,2.86053585 18.0293855,2.86053585 18.1280602,2.95968112 C18.226988,3.0590806 18.226988,3.220001 18.1280602,3.31940049 C18.0293855,3.41854576 17.8689759,3.41854576 17.7703012,3.31940049 L17.7703012,3.31940049 Z M17.7680241,4.08231061 C17.6693494,3.98316534 17.6693494,3.82199073 17.7680241,3.72284546 C17.8669518,3.62344598 18.0271084,3.62344598 18.1257831,3.72284546 C18.2247108,3.82199073 18.2247108,3.98316534 18.1257831,4.08231061 C18.0271084,4.1817101 17.8669518,4.1817101 17.7680241,4.08231061 L17.7680241,4.08231061 Z M17.7682771,4.84267855 C17.6696024,4.74353328 17.6696024,4.58261289 17.7682771,4.4832134 C17.8672048,4.38406813 18.0273614,4.38406813 18.1262892,4.4832134 C18.2249639,4.58261289 18.2249639,4.74353328 18.1262892,4.84267855 C18.0273614,4.94207804 17.8672048,4.94207804 17.7682771,4.84267855 L17.7682771,4.84267855 Z M17.7687831,5.60584289 C17.6698554,5.50644341 17.6698554,5.34552301 17.7687831,5.24612352 C17.8674578,5.14697826 18.0276145,5.14697826 18.1265422,5.24612352 C18.2254699,5.34552301 18.2254699,5.50644341 18.1265422,5.60584289 C18.0276145,5.70498816 17.8674578,5.70498816 17.7687831,5.60584289 L17.7687831,5.60584289 Z M17.7690361,6.36875302 C17.6703614,6.26935353 17.6703614,6.10843314 17.7690361,6.00928787 C17.8679639,5.90988838 18.0281205,5.90988838 18.1267952,6.00928787 C18.2257229,6.10843314 18.2257229,6.26935353 18.1267952,6.36875302 C18.0281205,6.46789829 17.8679639,6.46789829 17.7690361,6.36875302 L17.7690361,6.36875302 Z M18.1273012,6.77219799 C18.2259759,6.87159748 18.2259759,7.03251788 18.1273012,7.13166314 C18.0283735,7.23106263 17.8682169,7.23106263 17.7692892,7.13166314 C17.6706145,7.03251788 17.6706145,6.87159748 17.7692892,6.77219799 C17.8682169,6.67305273 18.0283735,6.67305273 18.1273012,6.77219799 L18.1273012,6.77219799 Z M5.04910843,11.1595032 C5.09237349,11.1767901 5.13816867,11.1856877 5.18472289,11.1861962 C5.18750602,11.1861962 5.19028916,11.1864504 5.19307229,11.1864504 C5.29883133,11.1864504 5.40003614,11.1422163 5.47214458,11.0634086 L7.90713253,8.38801164 L11.3749157,9.33878934 C11.4773855,9.36649917 11.5882048,9.35022917 11.6785301,9.29277576 L15.8514578,6.61992103 L18.3281928,8.68417635 L18.3281928,14.5367978 L2.89420482,14.5367978 L2.89420482,10.3157516 L5.04910843,11.1595032 Z M3.27701205,7.7367035 C3.2823253,7.79364847 3.3033253,7.84983079 3.34684337,7.89355639 C3.44551807,7.99270166 3.6056747,7.99270166 3.70460241,7.89355639 C3.80327711,7.79415691 3.80327711,7.63323651 3.70460241,7.53383702 C3.65956627,7.48858611 3.60137349,7.4667233 3.54242169,7.46291003 L4.03250602,6.95701494 C4.03351807,7.0205696 4.05755422,7.08412426 4.10587952,7.13268002 C4.20455422,7.2320795 4.36471084,7.2320795 4.46363855,7.13268002 C4.56231325,7.03353475 4.56231325,6.87236014 4.46363855,6.77321487 C4.41354217,6.72287958 4.34775904,6.69847459 4.28222892,6.69923724 L4.79457831,6.17046248 C4.78901205,6.24189792 4.81051807,6.31485867 4.86491566,6.36926146 C4.96359036,6.46866094 5.12374699,6.46866094 5.2226747,6.36926146 C5.3213494,6.27011619 5.3213494,6.10919579 5.2226747,6.00979631 C5.16625301,5.95335977 5.09060241,5.93276806 5.0169759,5.94064884 L5.31679518,5.63126476 L7.12760241,6.03191333 C7.04840964,6.13182125 7.05093976,6.27596322 7.14303614,6.36824458 C7.24171084,6.46764407 7.40186747,6.46764407 7.50079518,6.36824458 C7.56581928,6.30316461 7.58378313,6.21190012 7.56328916,6.12826219 L7.82844578,6.18698669 C7.82819277,6.2525751 7.85248193,6.31816351 7.9023253,6.36799036 C8.001,6.46738985 8.16140964,6.46738985 8.26008434,6.36799036 C8.28209639,6.34612756 8.29727711,6.32019726 8.30942169,6.2935043 L8.66439759,6.37205786 C8.73473494,6.44069689 8.83391566,6.4584922 8.92120482,6.42900284 L9.49022892,6.55484106 C9.6346988,6.5812798 9.78473494,6.52052154 9.87050602,6.39747972 L10.3610964,5.68007474 C10.4240964,5.67905786 10.4870964,5.65490709 10.5354217,5.60660555 C10.6070241,5.53466168 10.624988,5.43068625 10.5928554,5.34094708 L10.9349277,4.8406448 C10.9356867,4.84140746 10.9359398,4.84242433 10.9366988,4.84318699 C11.0353735,4.94258647 11.1955301,4.94258647 11.2944578,4.84318699 C11.3931325,4.74404172 11.3931325,4.58312132 11.2944578,4.48372184 C11.2709277,4.46033372 11.2438554,4.44330107 11.2152651,4.43084436 L11.6372892,3.81385573 L11.6385542,3.81410995 C11.6051566,3.90461179 11.6233735,4.0098583 11.6957349,4.08256483 C11.7944096,4.1817101 11.9545663,4.1817101 12.053494,4.08256483 C12.0942289,4.04163563 12.1137108,3.98977503 12.1210482,3.93664333 L12.4066988,4.00909565 C12.4188434,4.03502595 12.4335181,4.06044781 12.4550241,4.08205639 C12.5443373,4.17179557 12.6814699,4.17611729 12.7803976,4.10366498 L14.0606386,4.42855639 C14.0292651,4.44075889 13.9996627,4.45931685 13.9741084,4.48499293 C13.8751807,4.5841382 13.8751807,4.74505859 13.9741084,4.84445808 C14.0727831,4.94360335 14.2331928,4.94360335 14.3318675,4.84445808 C14.426241,4.74963453 14.427759,4.59964554 14.3417349,4.49973761 L14.6749518,4.5841382 C14.6456024,4.67260628 14.6633133,4.7737853 14.7333976,4.84420386 C14.8323253,4.94334913 14.9924819,4.94334913 15.0911566,4.84420386 C15.1298675,4.80530841 15.1485904,4.75675265 15.1571928,4.70667158 L15.2912892,4.74048266 C15.3393614,4.75293937 15.3874337,4.75243093 15.434747,4.74607547 C15.4466386,4.78166608 15.4646024,4.81547716 15.4929398,4.84369542 C15.5916145,4.94309491 15.7517711,4.94309491 15.8506988,4.84369542 C15.9493735,4.74455016 15.9493735,4.58362976 15.8506988,4.48423027 C15.8438675,4.47736637 15.835012,4.47482419 15.8276747,4.46897716 L16.2410964,4.06400687 C16.2453976,4.06909124 16.2471687,4.07570093 16.2519759,4.08053108 C16.3506506,4.17967635 16.5108072,4.17967635 16.6097349,4.08053108 C16.7084096,3.9811316 16.7084096,3.8202112 16.6097349,3.72081171 C16.6064458,3.71776109 16.6021446,3.71674421 16.5988554,3.71369359 L17.0069639,3.31380768 C17.0087349,3.31558721 17.009241,3.31787518 17.011012,3.31965471 C17.1096867,3.41905419 17.2698434,3.41905419 17.3687711,3.31965471 C17.4674458,3.22050944 17.4674458,3.05933482 17.3687711,2.96018956 C17.3685181,2.95993534 17.3682651,2.95993534 17.3682651,2.95968112 L17.7758675,2.56030364 C17.8750482,2.65436454 18.0306506,2.6538561 18.1278072,2.55623614 C18.2231928,2.46039572 18.2242048,2.30811876 18.1353976,2.20821083 L18.3281928,2.01932639 L18.3281928,7.69933336 L17.4396145,6.9646415 C17.4429036,6.89549403 17.4203855,6.82532969 17.367759,6.77245221 C17.303494,6.70788068 17.2134217,6.68957694 17.1309398,6.70940599 L16.6474337,6.3097743 C16.7000602,6.21342543 16.6894337,6.09165471 16.6082169,6.00979631 C16.5148554,5.91624385 16.3686145,5.9142101 16.2691807,5.99733959 L16.1107952,5.866417 C15.9835301,5.76167892 15.8054096,5.75100173 15.666506,5.83972404 L15.160988,6.16436124 C15.1551687,6.10843314 15.1346747,6.05352191 15.0919157,6.01055896 C14.993241,5.91141369 14.8328313,5.91141369 14.7341566,6.01055896 C14.6352289,6.10995845 14.6352289,6.27087884 14.7341566,6.37002411 C14.7495904,6.38553145 14.7683133,6.39417488 14.7862771,6.40485206 L14.2751928,6.7327941 C14.1790482,6.67889975 14.0568434,6.6890685 13.9751205,6.77143534 C13.9207229,6.82609234 13.8992169,6.89905309 13.9047831,6.97074275 L12.872747,7.63298229 C12.8606024,7.59739168 12.8428916,7.5635806 12.8145542,7.53510812 C12.7156265,7.43570863 12.5554699,7.43570863 12.4567952,7.53510812 C12.3578675,7.63425339 12.3578675,7.79517378 12.4567952,7.89457327 C12.4580602,7.89584436 12.4595783,7.89609858 12.4610964,7.89736967 L11.9345783,8.23522624 C11.8520964,8.21539719 11.7620241,8.23344671 11.697759,8.29827246 C11.6608193,8.33513416 11.6426024,8.38140195 11.632988,8.42894084 L11.4128675,8.5702864 L11.3554337,8.55452485 C11.383012,8.46707363 11.3650482,8.36818259 11.2959759,8.2987809 C11.1973012,8.19938141 11.0371446,8.19938141 10.9382169,8.2987809 C10.9033012,8.33386307 10.8850843,8.37758868 10.8749639,8.42283959 L10.563759,8.33767635 C10.5546506,8.32369432 10.5488313,8.30869542 10.5366867,8.29649293 C10.458,8.21743093 10.3418675,8.20421157 10.247241,8.25073358 L8.9963494,7.90804686 C9.00292771,7.90245405 9.01127711,7.89991186 9.01760241,7.89355639 C9.11653012,7.79441113 9.11653012,7.63349073 9.01760241,7.53409124 C8.91892771,7.43494598 8.75851807,7.43494598 8.65984337,7.53409124 C8.58824096,7.60603512 8.57027711,7.71026476 8.60240964,7.80000394 L8.33016867,7.72526366 C8.33320482,7.65662463 8.31043373,7.58696872 8.25831325,7.53459968 C8.15938554,7.43520019 7.99922892,7.43520019 7.90055422,7.53459968 C7.8813253,7.5539203 7.86892771,7.57679997 7.85728916,7.59993387 C7.75406024,7.58035903 7.65007229,7.60400137 7.56607229,7.66526806 C7.55645783,7.61772917 7.53798795,7.5717156 7.5013012,7.5348539 C7.40262651,7.43545441 7.24246988,7.43545441 7.14354217,7.5348539 C7.04486747,7.63399917 7.04486747,7.79517378 7.14354217,7.89431905 C7.18225301,7.9332145 7.23108434,7.9522809 7.28118072,7.96067011 L6.81487952,8.4693616 C6.81260241,8.40733226 6.78957831,8.34555713 6.74226506,8.29827246 C6.64359036,8.19887297 6.48343373,8.19887297 6.38450602,8.29827246 C6.28583133,8.39741773 6.28583133,8.55833812 6.38450602,8.65773761 C6.43738554,8.71061509 6.50721687,8.73324055 6.57628916,8.72968149 L6.04420482,9.31006263 C6.06824096,9.22439095 6.05053012,9.12905896 5.98322892,9.0614368 C5.88455422,8.96229154 5.72439759,8.96229154 5.62546988,9.0614368 C5.52679518,9.16083629 5.52679518,9.32175669 5.62546988,9.42090195 C5.69707229,9.49284583 5.8003012,9.51089535 5.88936145,9.4788638 L5.0863012,10.3549012 L4.50184337,10.1263587 C4.557,10.0292471 4.54738554,9.90544267 4.46490361,9.8225674 C4.36622892,9.72342213 4.20581928,9.72342213 4.10714458,9.8225674 C4.0719759,9.85790379 4.05375904,9.90188361 4.04363855,9.94713453 L3.67651807,9.803501 C3.63679518,9.7735032 3.59201205,9.75545368 3.5446988,9.75189462 L2.89420482,9.49767598 L2.89420482,9.4542046 C2.91191566,9.44352741 2.93063855,9.4351382 2.94581928,9.41988508 C3.04474699,9.32048559 3.04474699,9.1595652 2.94581928,9.06016571 C2.93063855,9.04491259 2.91191566,9.03652338 2.89420482,9.0258462 L2.89420482,8.69104025 C2.91191566,8.68036307 2.93038554,8.67197385 2.94556627,8.65672074 C3.04424096,8.55757547 3.04424096,8.39665507 2.94556627,8.29725559 C2.93038554,8.28200247 2.91191566,8.27361325 2.89420482,8.26319029 L2.89420482,8.13201347 L3.27701205,7.7367035 Z M20.6204819,14.5367978 L19.0872289,14.5367978 L19.0872289,1.1941327 C19.0960843,1.15752521 19.1011446,1.11964664 19.0988675,1.0810054 C19.0925422,0.979317949 19.047506,0.886273928 18.9713494,0.81890599 C18.8954458,0.751283833 18.7998072,0.717726973 18.6965783,0.72382822 C18.6095422,0.72942103 18.5303494,0.764757421 18.4708916,0.818651771 C18.4549518,0.831616922 18.4397711,0.845598947 18.4261084,0.860852065 L15.2695301,3.94782895 L11.5611325,2.99933923 C11.4083133,2.95968112 11.2453735,3.02120203 11.1542892,3.15237884 L9.38851807,5.75074752 L5.27175904,4.83886527 C5.14322892,4.81013857 5.01090361,4.85055933 4.91880723,4.9456371 L2.24244578,7.71102741 C2.17185542,7.78322551 2.13314458,7.87881171 2.13390361,7.98024495 C2.13390361,7.9850751 2.13516867,7.98939682 2.13516867,7.99422697 L2.13516867,9.66851091 C2.12175904,9.72799807 2.12150602,9.78773945 2.13516867,9.84392176 L2.13516867,14.5367978 L0.379518072,14.5367978 C0.170024096,14.5367978 0,14.7078869 0,14.9181257 C0,15.1283645 0.170024096,15.2994537 0.379518072,15.2994537 L20.6204819,15.2994537 C20.8297229,15.2994537 21,15.1283645 21,14.9181257 C21,14.7078869 20.8297229,14.5367978 20.6204819,14.5367978 L20.6204819,14.5367978 Z" id="chart" fill="#606060"></path>
    </g>
</svg>