<?xml version="1.0" encoding="UTF-8" standalone="no"?>
<svg width="79px" height="79px" viewBox="0 0 79 79" version="1.1" xmlns="http://www.w3.org/2000/svg" xmlns:xlink="http://www.w3.org/1999/xlink">
    <!-- Generator: Sketch 39.1 (31720) - http://www.bohemiancoding.com/sketch -->
    <title>code</title>
    <desc>Created with Sketch.</desc>
    <defs></defs>
    <g id="Page-1" stroke="none" stroke-width="1" fill="none" fill-rule="evenodd">
        <g id="share-btn" transform="translate(-532.000000, -745.000000)">
            <g id="code" transform="translate(524.000000, 738.000000)">
                <rect id="Rectangle-17" x="0" y="0" width="94" height="94"></rect>
                <path d="M55.167741,51.9100561 L65.433667,46.6487815 L55.167741,40.7134966 L55.167741,36.2200945 L70.0718565,45.5064589 L70.0718565,48.183528 L55.167741,56.3844861 L55.167741,51.9100561 Z M53.6978993,32.8120987 L45.5179104,60.1859042 L41.3600157,60.1859042 L49.5400046,32.8130972 L53.6978993,32.8130972 L53.6978993,32.8120987 Z M39.8302619,56.3844861 L24.9261464,48.183528 L24.9261464,45.5064589 L39.8302619,36.2200945 L39.8302619,40.7134966 L29.5643359,46.6487815 L39.8302619,51.9100561 L39.8302619,56.3844861 Z M14.8759037,10.9941352 C13.2862379,10.9941352 11.9941352,12.2862379 11.9941352,13.8749052 L11.9941352,79.1230977 C11.9941352,80.711765 13.2862379,82.0038677 14.8759037,82.0038677 L80.1240963,82.0038677 C81.7127635,82.0038677 83.0058648,80.711765 83.0058648,79.1230977 L83.0058648,13.8749052 C83.0058648,12.2862379 81.7127635,10.9941352 80.1240963,10.9941352 L14.8759037,10.9941352 Z M80.1240963,85.9980029 L14.8759037,85.9980029 C11.0844709,85.9980029 8,82.913532 8,79.1230977 L8,13.8749052 C8,10.0844709 11.0844709,7 14.8759037,7 L80.1240963,7 C83.9145306,7 87,10.0844709 87,13.8749052 L87,79.1230977 C87,82.913532 83.9145306,85.9980029 80.1240963,85.9980029 L80.1240963,85.9980029 Z" fill="#FFFFFF"></path>
            </g>
        </g>
    </g>
</svg>