<?xml version="1.0" encoding="UTF-8" standalone="no"?>
<svg width="18px" height="18px" viewBox="0 0 18 18" version="1.1" xmlns="http://www.w3.org/2000/svg" xmlns:xlink="http://www.w3.org/1999/xlink">
    <!-- Generator: Sketch 39.1 (31720) - http://www.bohemiancoding.com/sketch -->
    <title>gear</title>
    <desc>Created with Sketch.</desc>
    <defs></defs>
    <g id="Page-1" stroke="none" stroke-width="1" fill="none" fill-rule="evenodd">
        <path d="M18,10.2133603 L18,7.7902834 L16.6919028,7.32388664 C16.1927126,7.14534413 15.7919028,6.76639676 15.5878543,6.27449393 L15.5878543,6.27449393 C15.3838057,5.78259109 15.3983806,5.22874494 15.6279352,4.751417 L16.2255061,3.49797571 L14.5129555,1.7854251 L13.2595142,2.38299595 C12.7785425,2.61255061 12.2246964,2.62348178 11.7327935,2.42307692 L11.7327935,2.42307692 C11.237247,2.21174089 10.8546559,1.81093117 10.6761134,1.31174089 L10.2133603,0 L7.7902834,0 L7.32388664,1.30809717 C7.14534413,1.80728745 6.76639676,2.20809717 6.27449393,2.41214575 L6.27449393,2.41214575 C5.78259109,2.61619433 5.22874494,2.60161943 4.74777328,2.37206478 L3.49433198,1.77813765 L1.78178138,3.49068826 L2.37935223,4.74412955 C2.60890688,5.22510121 2.61983806,5.77894737 2.4194332,6.2708502 L2.4194332,6.2708502 C2.21174089,6.76275304 1.81093117,7.14534413 1.31174089,7.32388664 L0,7.78663968 L0,10.2097166 L1.30809717,10.6761134 C1.80728745,10.8546559 2.20809717,11.2336032 2.41214575,11.7255061 L2.41214575,11.7255061 C2.61619433,12.2174089 2.60161943,12.7712551 2.37206478,13.2522267 L1.77449393,14.505668 L3.48704453,16.2182186 L4.74048583,15.6206478 C5.22145749,15.3910931 5.77530364,15.3801619 6.26720648,15.5805668 L6.26720648,15.5805668 C6.75546559,15.7846154 7.13805668,16.1854251 7.31659919,16.6846154 L7.78299595,17.9963563 L10.2060729,17.9963563 L10.6688259,16.6955466 C10.8473684,16.1927126 11.2336032,15.7846154 11.7255061,15.5805668 L11.7255061,15.5805668 C12.2101215,15.3801619 12.7603239,15.3910931 13.2376518,15.617004 L14.5020243,16.2182186 L16.2145749,14.505668 L15.617004,13.248583 C15.3874494,12.7676113 15.3765182,12.2137652 15.5769231,11.7255061 L15.5769231,11.7255061 C15.7809717,11.2336032 16.1817814,10.8546559 16.6809717,10.6761134 L18,10.2133603 L18,10.2133603 Z M9,12.3012146 C7.17813765,12.3012146 5.69878543,10.8218623 5.69878543,9 C5.69878543,7.17813765 7.17813765,5.69878543 9,5.69878543 C10.8218623,5.69878543 12.3012146,7.17813765 12.3012146,9 C12.3012146,10.8218623 10.8218623,12.3012146 9,12.3012146 L9,12.3012146 Z" id="gear" fill="#606060"></path>
    </g>
</svg>