<?xml version="1.0" encoding="UTF-8" standalone="no"?>
<svg width="19px" height="19px" viewBox="0 0 19 19" version="1.1" xmlns="http://www.w3.org/2000/svg" xmlns:xlink="http://www.w3.org/1999/xlink">
    <!-- Generator: Sketch 39.1 (31720) - http://www.bohemiancoding.com/sketch -->
    <title>github</title>
    <desc>Created with Sketch.</desc>
    <defs></defs>
    <g id="Page-1" stroke="none" stroke-width="1" fill="none" fill-rule="evenodd">
        <path d="M0.752803154,9.85783973 C0.752803154,13.8889496 3.3667141,17.3087784 6.99258418,18.5153743 C7.4480038,18.5997676 7.59550197,18.3169361 7.59550197,18.0766813 L7.59550197,16.3781714 C5.05762101,16.9301491 4.5292126,15.3015868 4.5292126,15.3015868 C4.11408887,14.2470509 3.51573288,13.9665002 3.51573288,13.9665002 C2.68776632,13.4000768 3.57883777,13.4122416 3.57883777,13.4122416 C4.49499911,13.4761068 4.97702922,14.3527325 4.97702922,14.3527325 C5.79055008,15.7471225 7.11119096,15.3441636 7.63199636,15.1107515 C7.71334845,14.5215191 7.94980171,14.1185602 8.21134486,13.8912305 C6.18514572,13.6593391 4.05478548,12.8769905 4.05478548,9.38189201 C4.05478548,8.38513888 4.41136612,7.57161802 4.99451612,6.93296613 C4.90023894,6.70259527 4.58775569,5.77426913 5.08347121,4.51825375 C5.08347121,4.51825375 5.84985347,4.27343719 7.59322107,5.45342259 C8.32082805,5.25118282 9.10089571,5.15006294 9.87640158,5.14626144 C10.6519074,5.15006294 11.4327354,5.25118282 12.161863,5.45342259 C13.90371,4.27343719 14.6685716,4.51825375 14.6685716,4.51825375 C15.1650475,5.77502943 14.8525642,6.70335557 14.758287,6.93296613 C15.3437179,7.57161802 15.6972574,8.38589918 15.6972574,9.38189201 C15.6972574,12.8861141 13.5630956,13.6578185 11.5315744,13.8836275 C11.8585033,14.1664591 12.1573012,14.721478 12.1573012,15.5730138 L12.1573012,18.0766813 C12.1573012,18.319217 12.3032788,18.6043294 12.7663014,18.514614 C16.3891303,17.3064975 19,13.887429 19,9.85783973 C19,4.8193325 14.9149088,0.734241302 9.87640158,0.734241302 C4.83865465,0.734241302 0.752803154,4.8193325 0.752803154,9.85783973 Z" id="github" fill="#606060"></path>
    </g>
</svg>