<?xml version="1.0" encoding="UTF-8" standalone="no"?>
<svg width="24px" height="23px" viewBox="0 0 24 23" version="1.1" xmlns="http://www.w3.org/2000/svg" xmlns:xlink="http://www.w3.org/1999/xlink">
    <!-- Generator: Sketch 39.1 (31720) - http://www.bohemiancoding.com/sketch -->
    <title>kakao</title>
    <desc>Created with Sketch.</desc>
    <defs></defs>
    <g id="Page-1" stroke="none" stroke-width="1" fill="none" fill-rule="evenodd">
        <g id="share" transform="translate(-785.000000, -344.000000)" fill="#FFFFFF">
            <g id="Group-7" transform="translate(455.000000, 327.000000)">
                <g id="Group" transform="translate(314.000000, 0.000000)">
                    <path d="M25.680465,26.5644805 L26.3768265,28.7448974 L24.9259128,28.7448974 L25.680465,26.5644805 Z M35.707762,31.0205003 L34.0587687,28.7711025 L33.6814927,29.0732316 C33.6814927,29.0732316 33.6807219,30.18425 33.6814927,30.7703959 C33.681878,31.2744584 32.3974437,31.2756145 32.3970584,30.7711667 C32.3970584,30.4513106 32.4251903,26.1378772 32.4124731,25.6607906 C32.3985998,25.1528745 33.6753268,25.1181913 33.6888147,25.6264928 C33.7065416,26.2735271 33.6895854,27.4435068 33.6895854,27.4435068 C33.6895854,27.4435068 35.5509169,25.5802485 35.8156652,25.3170416 C36.0892771,25.0453566 36.9359324,25.8977925 36.6623206,26.1694775 C36.1937121,26.6346177 35.0052346,27.9205934 35.0052346,27.9205934 L36.7563506,30.2262552 C37.0893092,30.665961 36.0407206,31.4602061 35.707762,31.0205003 L35.707762,31.0205003 Z M31.6675552,31.118384 C31.0798677,31.118384 29.7538135,31.1245499 29.1564919,31.1245499 C28.5595555,31.1245499 28.6593661,30.4274177 28.6593661,30.4274177 C28.6593661,30.4274177 28.6555124,26.9221028 28.6532002,25.8338212 C28.6512733,25.0700202 30.0054594,25.0669373 30.0070009,25.8307383 C30.0089277,26.6188175 30.0039179,29.8613109 30.0039179,29.8613109 C30.0039179,29.8613109 31.0763994,29.8674768 31.6644722,29.8674768 C32.2521597,29.8674768 32.255628,31.118384 31.6675552,31.118384 L31.6675552,31.118384 Z M27.0273291,30.7815716 C26.7232731,29.9800045 26.8018883,29.9010039 26.8018883,29.9010039 L24.5131828,29.9010039 L24.2630785,30.8193378 C23.9960179,31.432845 22.8453065,30.9538315 23.1123671,30.3403243 C23.4815505,29.4909714 24.5929542,26.3008883 24.9008639,25.6230245 C25.1698513,25.0307126 26.2392498,25.2276361 26.4269244,25.6284196 C26.6481261,26.1016526 27.8639648,29.4227611 28.2154212,30.3499585 C28.4612865,30.999305 27.2731944,31.4309181 27.0273291,30.7815716 L27.0273291,30.7815716 Z M22.2510678,26.4843238 L22.2452873,30.6894685 C22.2472141,31.2733023 20.9481358,31.2528777 20.9462089,30.6686586 C20.9527602,29.8682475 20.9450528,26.4326844 20.9450528,26.4326844 L19.694531,26.4326844 C18.9611741,26.4326844 18.9592472,25.2345727 19.6926041,25.2334166 C19.6926041,25.2334166 22.6210219,25.2457484 23.4965799,25.2457484 C24.2742542,25.2461338 24.2734834,26.4785433 23.4958091,26.4777725 C22.6703491,26.4773872 22.2510678,26.4843238 22.2510678,26.4843238 L22.2510678,26.4843238 Z M28,17.837418 C21.3724269,17.837418 16,22.0849532 16,27.3240425 C16,30.7341713 18.2763737,33.7238627 21.6930537,35.3955926 C21.4417932,36.3328096 20.7839687,38.7903067 20.6525579,39.3159497 C20.4895469,39.9687645 20.8911012,39.9602864 21.1546935,39.7845582 C21.3612512,39.6469816 24.4426603,37.5517312 25.7725682,36.6472706 C26.494364,36.7544031 27.2388966,36.8110524 28,36.8110524 C34.6275731,36.8110524 40,32.5635171 40,27.3240425 C40,22.0849532 34.6275731,17.837418 28,17.837418 L28,17.837418 Z" id="kakao"></path>
                </g>
            </g>
        </g>
    </g>
</svg>