<?xml version="1.0" encoding="UTF-8" standalone="no"?>
<svg width="16px" height="17px" viewBox="0 0 16 17" version="1.1" xmlns="http://www.w3.org/2000/svg" xmlns:xlink="http://www.w3.org/1999/xlink">
    <!-- Generator: Sketch 39.1 (31720) - http://www.bohemiancoding.com/sketch -->
    <title>left</title>
    <desc>Created with Sketch.</desc>
    <defs></defs>
    <g id="Page-1" stroke="none" stroke-width="1" fill="none" fill-rule="evenodd">
        <g id="edit-ui" transform="translate(-772.000000, -86.000000)" fill="#434A54">
            <path d="M779.803279,98.7213115 C779.956984,98.8750164 780.159475,98.9505574 780.360393,98.9505574 C780.561836,98.9505574 780.748066,98.8750164 780.90177,98.7213115 C781.055475,98.5676066 781.147803,98.3651148 781.147803,98.1641967 C781.147803,97.9627541 781.010885,97.7943607 780.90177,97.6065574 L778.360656,95.0491803 L787.213115,95.0491803 C787.647475,95.0491803 788,94.6966557 788,94.2622951 C788,93.8279344 787.647475,93.4754098 787.213115,93.4754098 L778.360656,93.4754098 L780.90177,90.9180328 C781.054951,90.7638033 781.147803,90.5618361 781.147803,90.3603934 C781.147803,90.1594754 781.055475,89.9569836 780.90177,89.8032787 C780.748066,89.6495738 780.561836,89.5740328 780.360393,89.5740328 C780.159475,89.5740328 779.956984,89.6495738 779.803279,89.8032787 L775.901902,93.7046557 C775.759213,93.8473443 775.672131,94.0451148 775.672131,94.2622951 C775.672131,94.4794754 775.759213,94.6772459 775.901902,94.8199344 L779.803279,98.7213115 Z M772.786885,102.52459 C773.221246,102.52459 773.57377,102.172066 773.57377,101.737705 L773.57377,86.7868852 C773.57377,86.3525246 773.221246,86 772.786885,86 C772.352525,86 772,86.3525246 772,86.7868852 L772,101.737705 C772,102.172066 772.352525,102.52459 772.786885,102.52459 Z" id="left"></path>
        </g>
    </g>
</svg>