<?xml version="1.0" encoding="UTF-8" standalone="no"?>
<svg width="20px" height="17px" viewBox="0 0 20 17" version="1.1" xmlns="http://www.w3.org/2000/svg" xmlns:xlink="http://www.w3.org/1999/xlink">
    <!-- Generator: Sketch 39.1 (31720) - http://www.bohemiancoding.com/sketch -->
    <title>map</title>
    <desc>Created with Sketch.</desc>
    <defs></defs>
    <g id="Page-1" stroke="none" stroke-width="1" fill="none" fill-rule="evenodd">
        <path d="M12.2845953,0.97845953 C13.0939948,0.97845953 13.7532637,1.63707572 13.7532637,2.44712794 C13.7532637,3.25718016 13.0939948,3.91579634 12.2845953,3.91579634 C11.4751958,3.91579634 10.8159269,3.25718016 10.8159269,2.44712794 C10.8159269,1.63707572 11.4751958,0.97845953 12.2845953,0.97845953 L12.2845953,0.97845953 Z M11.2356397,4.65143603 C11.4125326,4.73498695 11.5998695,4.79765013 11.7950392,4.83681462 L11.7950392,12.0750653 L12.7741514,12.0750653 L12.7741514,4.83681462 C12.9693211,4.79765013 13.1573107,4.73498695 13.3335509,4.65143603 C14.1964752,4.24020888 14.732376,3.39556136 14.732376,2.44778068 C14.732376,1.09856397 13.633812,0 12.2845953,0 C10.9353786,0 9.83681462,1.09856397 9.83681462,2.44778068 C9.83681462,3.39556136 10.3727154,4.24020888 11.2356397,4.65143603 L11.2356397,4.65143603 Z M17.6214099,11.1651436 L18.7454308,15.6651436 L14.6253264,15.6651436 C15.5065274,13.5600522 16.6990862,12.0848564 17.6214099,11.1651436 L17.6214099,11.1651436 Z M5.52088773,15.6651436 C5.78133159,15.2956919 6.07506527,14.924282 6.39751958,14.558094 C6.93342037,14.8818538 7.40208877,15.2532637 7.79569191,15.6651436 L5.52088773,15.6651436 Z M4.3270235,15.6651436 L1.25456919,15.6651436 L1.88772846,13.1305483 C2.83616188,13.2382507 4.17101828,13.4915144 5.47519582,14.078329 C5.03851175,14.5972585 4.65339426,15.1305483 4.3270235,15.6651436 L4.3270235,15.6651436 Z M3.4575718,6.85313316 L5.91122715,6.85313316 C5.51370757,7.83028721 4.64490862,9.02610966 2.74804178,9.68994778 L3.4575718,6.85313316 Z M17.3381201,5.99804178 L17.3074413,5.87467363 L13.5359008,5.87402089 L13.5359008,6.85313316 L16.5424282,6.85313316 L16.7872063,7.83028721 C15.6520888,8.08159269 14.5659269,8.40208877 13.5359008,8.77023499 L13.5359008,9.82637076 C14.6403394,9.4073107 15.808094,9.05221932 17.0248042,8.78198433 L17.3439948,10.0587467 C16.1827676,11.1103133 14.616188,12.9184073 13.5620104,15.6651436 L9.05613577,15.6651436 C8.53328982,14.944517 7.8727154,14.325718 7.09007833,13.8218016 C8.22650131,12.6977807 9.59203655,11.7199739 11.1422977,10.9001305 L11.1422977,9.77415144 C9.19190601,10.7336815 7.51827676,11.9203655 6.17101828,13.3100522 C4.71344648,12.595953 3.20365535,12.2937337 2.12859008,12.1664491 L2.47258486,10.79047 C5.4386423,9.98237598 6.53524804,8.02937337 6.93342037,6.8537859 L11.1422977,6.8537859 L11.1422977,5.87467363 L2.69255875,5.87467363 L0,16.6449086 L20,16.6449086 L17.3381201,5.99804178 Z" id="map" fill="#606060"></path>
    </g>
</svg>