<?xml version="1.0" encoding="UTF-8" standalone="no"?>
<svg width="18px" height="18px" viewBox="0 0 18 18" version="1.1" xmlns="http://www.w3.org/2000/svg" xmlns:xlink="http://www.w3.org/1999/xlink">
    <!-- Generator: Sketch 39.1 (31720) - http://www.bohemiancoding.com/sketch -->
    <title>me</title>
    <desc>Created with Sketch.</desc>
    <defs></defs>
    <g id="Page-1" stroke="none" stroke-width="1" fill="none" fill-rule="evenodd">
        <path d="M11.799,10.2585 C15.33825,3.5745 12.73725,0 9,0 C5.1885,0 2.65125,3.71175 6.201,10.2585 C7.3995,12.46725 4.90725,12.98925 2.3835,13.572 C0.14925,14.088 0,15.17925 0,17.06925 L0.00375,18 L1.5,18 C1.5,15.6495 1.40625,15.3375 2.8785,14.99775 C5.01675,14.505 7.03575,14.03925 7.77225,12.40575 C8.0415,11.8095 8.21625,10.8285 7.51875,9.5445 C5.97525,6.69525 5.58525,4.22775 6.4515,2.775 C7.467,1.06875 10.521,1.077 11.52675,2.7495 C12.38925,4.18275 12.006,6.66375 10.4745,9.5565 C9.792,10.84575 9.97125,11.82375 10.242,12.417 C10.9845,14.04225 13.02225,14.5125 15.18,15.0105 C16.58925,15.3375 16.5,15.672 16.5,18 L17.99625,18 L18,17.06925 C18,15.17925 17.85075,14.088 15.6165,13.572 C13.03725,12.9765 10.63575,12.4545 11.799,10.2585 Z" id="me" fill="#606060"></path>
    </g>
</svg>