<?xml version="1.0" encoding="UTF-8" standalone="no"?>
<svg width="20px" height="20px" viewBox="0 0 20 20" version="1.1" xmlns="http://www.w3.org/2000/svg" xmlns:xlink="http://www.w3.org/1999/xlink">
    <!-- Generator: Sketch 39.1 (31720) - http://www.bohemiancoding.com/sketch -->
    <title>module</title>
    <desc>Created with Sketch.</desc>
    <defs></defs>
    <g id="Page-1" stroke="none" stroke-width="1" fill="none" fill-rule="evenodd">
        <path d="M3.55848307,10.4977199 C3.71633472,10.4977199 3.87165296,10.52968 4.01683751,10.5951592 C4.46466851,10.7974432 4.72151849,11.2661262 4.72151849,11.881163 L4.72151849,14.9084071 C4.72151849,15.1130296 4.88911408,15.2858869 5.08730561,15.2858869 L8.09174884,15.2858869 C8.70853958,15.2858869 9.17761235,15.5417625 9.37892193,15.9876447 C9.57282613,16.417352 9.46876096,16.939042 9.10726118,17.3488717 C8.78863468,17.7097868 8.69314417,18.1737927 8.8576217,18.5598472 C9.02521729,18.9527225 9.43231867,19.192618 9.97602993,19.2197061 C10.5209105,19.192618 10.9282067,18.953502 11.0948279,18.5621858 C11.2583311,18.1786647 11.1624508,17.7169973 10.8446038,17.3570566 C10.4823245,16.9460576 10.378844,16.4220291 10.5741123,15.9897884 C10.7762014,15.542542 11.2448844,15.2858869 11.8605059,15.2858869 L14.910161,15.2858869 C15.1198503,15.2858869 15.2449624,15.0939315 15.2449624,14.9084071 L15.2449624,11.881163 C15.2449624,11.2674904 15.5029816,10.799392 15.9533461,10.5963285 C16.3910434,10.3983318 16.9189695,10.5018124 17.3309428,10.8658456 C17.6926375,11.1844721 18.1582024,11.2795728 18.5465955,11.1145107 C18.9402502,10.9467202 19.1807304,10.5398137 19.2076237,9.99688194 C19.1807304,9.4529758 18.9408349,9.04587442 18.5485443,8.87866859 C18.1630744,8.71419106 17.6988736,8.80968157 17.3381533,9.12830806 L17.3379585,9.12850294 C16.9248158,9.49273103 16.3945512,9.59543205 15.9549051,9.39704564 C15.5035663,9.19320263 15.2449624,8.72510426 15.2449624,8.11279573 L15.2449624,5.0855517 C15.2449624,4.88930896 15.1136142,4.762443 14.910161,4.762443 L11.8605059,4.762443 C11.2480025,4.762443 10.7799041,4.50364423 10.5760611,4.05211054 C10.3774798,3.61168492 10.4803757,3.08142028 10.8449936,2.66847254 C11.1651791,2.30580348 11.2598901,1.8369256 11.0928791,1.44444011 C10.9239194,1.04883657 10.5174027,0.807187122 9.97602993,0.780293877 C9.43426745,0.807187122 9.02794559,1.04844682 8.85937561,1.4436606 C8.69255954,1.83517169 8.78746541,2.30346494 9.10745605,2.66593912 C9.47226878,3.07947149 9.57516467,3.61032077 9.37599875,4.0515259 C9.17215575,4.50344935 8.70405737,4.762443 8.09194372,4.762443 L5.08730561,4.762443 C4.90567876,4.762443 4.72151849,4.87352379 4.72151849,5.0855517 L4.72151849,8.11279573 C4.72151849,8.72880695 4.46525315,9.19768484 4.01820166,9.39938418 C3.58674046,9.59387302 3.06368632,9.49039249 2.65327201,9.12811319 C2.29235686,8.80929181 1.82757142,8.71419106 1.44054254,8.87886347 C1.04727755,9.04665393 0.807382001,9.45356043 0.780293877,9.99707682 C0.807382001,10.5411778 1.04669291,10.9484741 1.43859376,11.1154851 C1.82347897,11.2793779 2.2865105,11.1838874 2.6470359,10.8654558 C2.92064544,10.6241961 3.24453366,10.4977199 3.55848307,10.4977199 L3.55848307,10.4977199 Z M9.97602993,20 L9.95985501,19.9992205 C9.10823557,19.9635577 8.42810929,19.5398916 8.14066337,18.8654168 C7.85711502,18.2001013 8.00346884,17.4213665 8.52282028,16.8332229 C8.67638461,16.6588066 8.73367892,16.4530148 8.66839459,16.30822 C8.59882293,16.1538761 8.38854893,16.0654013 8.09174884,16.0654013 L5.08730561,16.0654013 C4.4557041,16.0654013 3.94200413,15.5464396 3.94200413,14.9084071 L3.94200413,11.881163 C3.94200413,11.5861168 3.85235998,11.3764275 3.69606735,11.3056866 C3.54756986,11.2384534 3.33827026,11.2955529 3.16268465,11.4500916 C2.57454106,11.9690533 1.79639085,12.1157969 1.13282925,11.8324434 C0.459523717,11.5453872 0.0362474179,10.8652609 0.000779514363,10.0132517 L0,9.99707682 L0.000779514363,9.9809019 C0.0362474179,9.12947734 0.460108352,8.44954593 1.13477803,8.16190513 C1.80087306,7.87796703 2.58077718,8.02412597 3.16931052,8.54367229 C3.34372686,8.69782126 3.55107768,8.75472581 3.69762638,8.68885684 C3.85294462,8.61870055 3.94200413,8.40881631 3.94200413,8.11279573 L3.94200413,5.0855517 C3.94200413,4.46720193 4.44518065,3.98292864 5.08730561,3.98292864 L8.09194372,3.98292864 C8.38406673,3.98292864 8.59317145,3.89114082 8.66547141,3.73095062 C8.7356277,3.57524262 8.67969755,3.3597069 8.52301516,3.18178275 C8.00210469,2.59188526 7.8563355,1.8086682 8.14241727,1.13789609 C8.43083759,0.461277624 9.11037923,0.0360525393 9.95985501,0.000779514363 L9.97602993,0 L9.99239973,0.000779514363 C10.8418755,0.0360525393 11.5212223,0.461667381 11.8098375,1.13887048 C12.0961141,1.81042211 11.9503449,2.5942238 11.4292396,3.18431617 C11.2727521,3.36165569 11.2168219,3.5764119 11.2867833,3.73153525 C11.3588884,3.8913357 11.5679931,3.98292864 11.8605059,3.98292864 L14.910161,3.98292864 C15.5454652,3.98292864 16.0244768,4.45687337 16.0244768,5.0855517 L16.0244768,8.11279573 C16.0244768,8.40530849 16.1160697,8.61441322 16.2754804,8.6865183 C16.4300191,8.75589508 16.6449702,8.70035468 16.8226995,8.54386717 C17.4110379,8.02471061 18.1897728,7.87816191 18.8543088,8.16171025 C19.5281989,8.4489613 19.9516701,9.1288927 19.987138,9.98051214 L19.9879175,9.99688194 L19.987138,10.0130569 C19.951865,10.8638968 19.5274194,11.5436333 18.8521651,11.8316639 C18.1849008,12.1163815 17.4040223,11.9696379 16.8152941,11.4502865 C16.6391238,11.2945785 16.4272908,11.2382586 16.2739213,11.306661 C16.1152902,11.3783763 16.0244768,11.5876759 16.0244768,11.881163 L16.0244768,14.9084071 C16.0244768,15.5571579 15.5351366,16.0654013 14.910161,16.0654013 L11.8605059,16.0654013 C11.5646802,16.0654013 11.354796,16.1546556 11.2844448,16.3105585 C11.2179912,16.4578867 11.2747009,16.6660171 11.4290447,16.8414078 C11.9476166,17.428577 12.0943602,18.2051682 11.812176,18.8677554 C11.5253147,19.5406712 10.8449936,19.9635577 9.99239973,19.9992205 L9.97602993,20 Z" id="module" fill="#606060"></path>
    </g>
</svg>