<?xml version="1.0" encoding="UTF-8" standalone="no"?>
<svg width="16px" height="21px" viewBox="0 0 16 21" version="1.1" xmlns="http://www.w3.org/2000/svg" xmlns:xlink="http://www.w3.org/1999/xlink">
    <!-- Generator: Sketch 39.1 (31720) - http://www.bohemiancoding.com/sketch -->
    <title>page</title>
    <desc>Created with Sketch.</desc>
    <defs></defs>
    <g id="Page-1" stroke="none" stroke-width="1" fill="none" fill-rule="evenodd">
        <path d="M0.838136986,19.1846575 L0.838136986,3.09282192 C0.838136986,1.84964384 1.84964384,0.838136986 3.09282192,0.838136986 L15.1620822,0.838136986 L15.1620822,17.186411 L13.1638356,19.1846575 L0.838136986,19.1846575 Z M3.09282192,0 C1.38739726,0 0,1.38739726 0,3.09282192 L0,20.0225753 L13.5112329,20.0225753 L16,17.5338082 L16,0 L3.09282192,0 Z M13.2964384,12.6570959 C13.2964384,12.8878904 13.1086027,13.0759452 12.877589,13.0759452 L3.12219178,13.0759452 C2.89117808,13.0759452 2.70312329,12.8878904 2.70312329,12.6570959 C2.70312329,12.425863 2.89117808,12.2380274 3.12219178,12.2380274 L12.877589,12.2380274 C13.1086027,12.2380274 13.2964384,12.425863 13.2964384,12.6570959 L13.2964384,12.6570959 Z M13.2964384,10.6456986 C13.2964384,10.8767123 13.1086027,11.0647671 12.877589,11.0647671 L3.12219178,11.0647671 C2.89117808,11.0647671 2.70312329,10.8767123 2.70312329,10.6456986 C2.70312329,10.4146849 2.89117808,10.2266301 3.12219178,10.2266301 L12.877589,10.2266301 C13.1086027,10.2266301 13.2964384,10.4146849 13.2964384,10.6456986 L13.2964384,10.6456986 Z M13.2964384,14.6684932 C13.2964384,14.8992877 13.1086027,15.0873425 12.877589,15.0873425 L3.12219178,15.0873425 C2.89117808,15.0873425 2.70312329,14.8992877 2.70312329,14.6684932 C2.70312329,14.4372603 2.89117808,14.2492055 3.12219178,14.2492055 L12.877589,14.2492055 C13.1086027,14.2492055 13.2964384,14.4372603 13.2964384,14.6684932 L13.2964384,14.6684932 Z M13.2964384,16.6796712 C13.2964384,16.9106849 13.1086027,17.0985205 12.877589,17.0985205 L3.12219178,17.0985205 C2.89117808,17.0985205 2.70312329,16.9106849 2.70312329,16.6796712 C2.70312329,16.4486575 2.89117808,16.2606027 3.12219178,16.2606027 L12.877589,16.2606027 C13.1086027,16.2606027 13.2964384,16.4486575 13.2964384,16.6796712 L13.2964384,16.6796712 Z M12.768,3.58619178 C12.768,3.89567123 12.5163836,4.14728767 12.2069041,4.14728767 C11.8972055,4.14728767 11.6451507,3.89567123 11.6451507,3.58619178 C11.6451507,3.27649315 11.8972055,3.02487671 12.2069041,3.02487671 C12.5163836,3.02487671 12.768,3.27649315 12.768,3.58619178 L12.768,3.58619178 Z M9.34027397,7.66794521 C9.03035616,7.66794521 8.77852055,7.41632877 8.77852055,7.10684932 C8.77852055,6.79715068 9.03035616,6.54553425 9.34027397,6.54553425 C9.64975342,6.54553425 9.90136986,6.79715068 9.90136986,7.10684932 C9.90136986,7.41632877 9.64975342,7.66794521 9.34027397,7.66794521 L9.34027397,7.66794521 Z M7.22147945,3.58619178 C7.22147945,3.89567123 6.96986301,4.14728767 6.66016438,4.14728767 C6.35068493,4.14728767 6.09884932,3.89567123 6.09884932,3.58619178 C6.09884932,3.27649315 6.35068493,3.02487671 6.66016438,3.02487671 C6.96986301,3.02487671 7.22147945,3.27649315 7.22147945,3.58619178 L7.22147945,3.58619178 Z M4.35463014,7.10684932 C4.35463014,7.41632877 4.1030137,7.66794521 3.79331507,7.66794521 C3.48383562,7.66794521 3.23221918,7.41632877 3.23221918,7.10684932 C3.23221918,6.79715068 3.48383562,6.54553425 3.79331507,6.54553425 C4.1030137,6.54553425 4.35463014,6.79715068 4.35463014,7.10684932 L4.35463014,7.10684932 Z M12.2069041,2.18717808 C11.4349589,2.18717808 10.8072329,2.81468493 10.8072329,3.58641096 C10.8072329,3.87726027 10.898411,4.1549589 11.0722192,4.39517808 L9.85161644,5.80843836 C9.55287671,5.68832877 9.23660274,5.67430137 8.92032877,5.77621918 L7.76438356,4.43747945 C7.95528767,4.19134247 8.05961644,3.89260274 8.05961644,3.58684932 C8.05961644,2.81534247 7.43189041,2.18783562 6.66016438,2.18783562 C5.88865753,2.18783562 5.26093151,2.81534247 5.26093151,3.58684932 C5.26093151,3.87112329 5.34882192,4.144 5.51561644,4.38136986 L4.28909589,5.80120548 C4.12865753,5.7389589 3.96230137,5.70739726 3.79331507,5.70739726 C3.02180822,5.70739726 2.39408219,6.33512329 2.39408219,7.10684932 C2.39408219,7.87835616 3.02180822,8.50608219 3.79331507,8.50608219 C4.5650411,8.50608219 5.19276712,7.87835616 5.19276712,7.10684932 C5.19276712,6.8269589 5.10750685,6.55758904 4.94531507,6.32241096 L6.17578082,4.89753425 C6.46027397,5.00361644 6.76515068,5.0169863 7.07331507,4.91879452 L8.23210959,6.2610411 C8.04339726,6.50630137 7.94038356,6.80328767 7.94038356,7.10706849 C7.94038356,7.87879452 8.56810959,8.50630137 9.34005479,8.50630137 C10.1115616,8.50630137 10.7390685,7.87879452 10.7390685,7.10706849 C10.7390685,6.83331507 10.6573151,6.5689863 10.502137,6.33709589 L11.7387397,4.9049863 C11.8888767,4.95868493 12.0460274,4.98564384 12.2069041,4.98564384 C12.978411,4.98564384 13.6059178,4.35813699 13.6059178,3.58641096 C13.6059178,2.81468493 12.978411,2.18717808 12.2069041,2.18717808 L12.2069041,2.18717808 Z" id="page" fill="#606060"></path>
    </g>
</svg>