<?xml version="1.0" encoding="UTF-8" standalone="no"?>
<svg width="20px" height="19px" viewBox="0 0 20 19" version="1.1" xmlns="http://www.w3.org/2000/svg" xmlns:xlink="http://www.w3.org/1999/xlink">
    <!-- Generator: Sketch 39.1 (31720) - http://www.bohemiancoding.com/sketch -->
    <title>ppt</title>
    <desc>Created with Sketch.</desc>
    <defs></defs>
    <g id="Page-1" stroke="none" stroke-width="1" fill="none" fill-rule="evenodd">
        <path d="M8.99818026,12.1979634 L9.82954376,12.1979634 L9.82954376,5.94796449 L8.99818026,5.94796449 L8.99818026,12.1979634 Z M10.227271,12.9934178 L8.60045306,12.9934178 C8.38090764,12.9934178 8.20272586,12.8154633 8.20272586,12.5956906 L8.20272586,5.55023729 C8.20272586,5.33069187 8.38090764,5.15251008 8.60045306,5.15251008 L10.227271,5.15251008 C10.4468164,5.15251008 10.6249982,5.33069187 10.6249982,5.55023729 L10.6249982,12.5956906 C10.6249982,12.8154633 10.4468164,12.9934178 10.227271,12.9934178 L10.227271,12.9934178 Z M2.89772677,12.1979634 L3.72909027,12.1979634 L3.72909027,10.9943273 L2.89772677,10.9943273 L2.89772677,12.1979634 Z M4.12681747,12.9934178 L2.49999957,12.9934178 C2.28045415,12.9934178 2.10227236,12.8154633 2.10227236,12.5956906 L2.10227236,10.5966001 C2.10227236,10.3770546 2.28045415,10.1988728 2.49999957,10.1988728 L4.12681747,10.1988728 C4.34636289,10.1988728 4.52454467,10.3770546 4.52454467,10.5966001 L4.52454467,12.5956906 C4.52454467,12.8154633 4.34636289,12.9934178 4.12681747,12.9934178 L4.12681747,12.9934178 Z M5.94795352,12.1979634 L6.77931701,12.1979634 L6.77931701,8.77705491 L5.94795352,8.77705491 L5.94795352,12.1979634 Z M7.17704421,12.9934178 L5.55022631,12.9934178 C5.3306809,12.9934178 5.15249911,12.8154633 5.15249911,12.5956906 L5.15249911,8.37932771 C5.15249911,8.15978229 5.3306809,7.9816005 5.55022631,7.9816005 L7.17704421,7.9816005 C7.39658963,7.9816005 7.57477142,8.15978229 7.57477142,8.37932771 L7.57477142,12.5956906 C7.57477142,12.8154633 7.39658963,12.9934178 7.17704421,12.9934178 L7.17704421,12.9934178 Z M12.8361341,11.1304636 C12.5852251,11.1422818 12.3911342,11.3552363 12.4029524,11.6063726 C12.4147706,11.8575089 12.6277251,12.0513725 12.8788614,12.0395543 L16.8181789,12.0395543 C17.0693152,12.0431907 17.2756788,11.8425089 17.2790879,11.5915999 C17.2827243,11.3404636 17.0820425,11.1341 16.8311335,11.1304636 L16.8181789,11.1304636 L12.8788614,11.1304636 C12.8645432,11.1297818 12.8504523,11.1297818 12.8361341,11.1304636 L12.8361341,11.1304636 Z M12.8361341,8.40319134 C12.5852251,8.41500952 12.3911342,8.62796403 12.4029524,8.87910035 C12.4147706,9.13023667 12.6277251,9.32410027 12.8788614,9.31228209 L16.8181789,9.31228209 C17.0693152,9.31591845 17.2756788,9.11523667 17.2790879,8.86432762 C17.2827243,8.6131913 17.0820425,8.4068277 16.8311335,8.40319134 L16.8181789,8.40319134 L12.8788614,8.40319134 C12.8645432,8.40250952 12.8504523,8.40250952 12.8361341,8.40319134 L12.8361341,8.40319134 Z M12.8361341,5.67591908 C12.5852251,5.68773726 12.3911342,5.90069177 12.4029524,6.15182809 C12.4147706,6.40296441 12.6277251,6.59682801 12.8788614,6.58500983 L16.8181789,6.58500983 C17.0693152,6.5886462 17.2756788,6.38796441 17.2790879,6.13705537 C17.2827243,5.88591905 17.0820425,5.67955545 16.8311335,5.67591908 L16.8181789,5.67591908 L12.8788614,5.67591908 C12.8645432,5.67523726 12.8504523,5.67523726 12.8361341,5.67591908 L12.8361341,5.67591908 Z M0.909090752,14.5395539 L19.0909058,14.5395539 L19.0909058,3.17591951 L0.909090752,3.17591951 L0.909090752,14.5395539 Z M9.95022555,0.441601804 C9.7268165,0.466147255 9.54068017,0.678647218 9.5454529,0.903192634 L9.5454529,2.26682876 L0.454545376,2.26682876 C0.203409056,2.26682876 0,2.47046509 0,2.72137414 L0,14.9940993 C0,15.2452356 0.203409056,15.4486447 0.454545376,15.4486447 L5.73863537,15.4486447 L4.39636288,17.4656898 C4.26227199,17.6627352 4.31999925,17.9638715 4.51704467,18.0977351 C4.71409009,18.231826 5.01522641,18.174326 5.14909002,17.9770533 L6.83227155,15.4486447 L13.167725,15.4486447 L14.8509065,17.9700079 C14.9727247,18.1888715 15.2961337,18.2656896 15.5043155,18.1261442 C15.71227,17.986826 15.7595427,17.6615988 15.6036337,17.4656898 L14.2613612,15.4486447 L19.5454512,15.4486447 C19.7965875,15.4486447 19.9999965,15.2452356 19.9999965,14.9940993 L19.9999965,2.72137414 C20.0009056,2.48614691 19.8222693,2.28887421 19.5881784,2.26682876 C19.5738603,2.26614694 19.5595421,2.26614694 19.5454512,2.26682876 L10.4545436,2.26682876 L10.4545436,0.903192634 C10.4599982,0.645465406 10.2065891,0.413419991 9.95022555,0.441601804 L9.95022555,0.441601804 Z" id="ppt" fill="#606060"></path>
    </g>
</svg>