<?xml version="1.0" encoding="UTF-8" standalone="no"?>
<svg width="16px" height="15px" viewBox="0 0 16 15" version="1.1" xmlns="http://www.w3.org/2000/svg" xmlns:xlink="http://www.w3.org/1999/xlink">
    <!-- Generator: Sketch 39.1 (31720) - http://www.bohemiancoding.com/sketch -->
    <title>return</title>
    <desc>Created with Sketch.</desc>
    <defs></defs>
    <g id="Page-1" stroke="none" stroke-width="1" fill="none" fill-rule="evenodd">
        <path d="M14.4703256,0.512771145 L14.4703256,11.2351821 L5.29077942,11.2351821 L5.29077942,9.12000108 C5.29077942,8.78120586 4.87443935,8.58433837 4.56845448,8.77204923 L0.199391782,11.5007243 C-0.0664639273,11.6655436 -0.0664639273,12.0272303 0.199391782,12.196628 L4.56845448,14.925303 C4.87443935,15.1175922 5.29077942,14.9161464 5.29077942,14.5773511 L5.29077942,12.2607243 L15.0271178,12.2607243 C15.3381188,12.2607243 15.588926,12.0318087 15.588926,11.7479532 L15.588926,0.512771145 C15.5939422,0.22891569 15.3431349,0 15.0321339,0 C14.7211329,0 14.4703256,0.22891569 14.4703256,0.512771145 Z" id="return" fill="#606060" transform="translate(7.794500, 7.500000) scale(-1, 1) translate(-7.794500, -7.500000) "></path>
    </g>
</svg>