<?xml version="1.0" encoding="UTF-8" standalone="no"?>
<svg width="16px" height="17px" viewBox="0 0 16 17" version="1.1" xmlns="http://www.w3.org/2000/svg" xmlns:xlink="http://www.w3.org/1999/xlink">
    <!-- Generator: Sketch 39.1 (31720) - http://www.bohemiancoding.com/sketch -->
    <title>right</title>
    <desc>Created with Sketch.</desc>
    <defs></defs>
    <g id="Page-1" stroke="none" stroke-width="1" fill="none" fill-rule="evenodd">
        <g id="edit-ui" transform="translate(-736.000000, -86.000000)" fill="#434A54">
            <path d="M744.196721,89.9011572 C744.043016,89.7434966 743.840525,89.6660116 743.639607,89.6660116 C743.438164,89.6660116 743.251934,89.7434966 743.09823,89.9011572 C742.944525,90.0588177 742.852197,90.2665207 742.852197,90.4726095 C742.852197,90.6792363 742.989115,90.8519634 743.09823,91.0445998 L745.639344,93.6677917 L736.786885,93.6677917 C736.352525,93.6677917 736,94.0293886 736,94.4749277 C736,94.9204667 736.352525,95.2820636 736.786885,95.2820636 L745.639344,95.2820636 L743.09823,97.9052555 C742.945049,98.0634542 742.852197,98.2706191 742.852197,98.4772459 C742.852197,98.6833346 742.944525,98.8910376 743.09823,99.0486982 C743.251934,99.2063587 743.438164,99.2838438 743.639607,99.2838438 C743.840525,99.2838438 744.043016,99.2063587 744.196721,99.0486982 L748.098098,95.046918 C748.240787,94.9005574 748.327869,94.6976972 748.327869,94.4749277 C748.327869,94.2521581 748.240787,94.049298 748.098098,93.9029373 L744.196721,89.9011572 Z M751.213115,86 C750.778754,86 750.42623,86.3615969 750.42623,86.807136 L750.42623,102.142719 C750.42623,102.588258 750.778754,102.949855 751.213115,102.949855 C751.647475,102.949855 752,102.588258 752,102.142719 L752,86.807136 C752,86.3615969 751.647475,86 751.213115,86 Z" id="right"></path>
        </g>
    </g>
</svg>