<?xml version="1.0" encoding="UTF-8" standalone="no"?>
<svg width="16px" height="18px" viewBox="0 0 16 18" version="1.1" xmlns="http://www.w3.org/2000/svg" xmlns:xlink="http://www.w3.org/1999/xlink">
    <!-- Generator: Sketch 39.1 (31720) - http://www.bohemiancoding.com/sketch -->
    <title>share</title>
    <desc>Created with Sketch.</desc>
    <defs></defs>
    <g id="Page-1" stroke="none" stroke-width="1" fill="none" fill-rule="evenodd">
        <path d="M12.0869384,5.49542429 C11.4785774,5.49542429 10.9076539,5.65453411 10.4116057,5.93531614 C10.0840266,6.11938436 9.68157238,6.11002496 9.36647255,5.90723794 L5.82549917,3.63914309 C5.55095674,3.46443428 5.37936772,3.16805324 5.36064892,2.84359401 C5.28577371,1.58007488 4.2375208,0.556780366 2.93344426,0.556780366 C1.58881032,0.556780366 0.5,1.64559068 0.5,2.99022463 C0.5,4.71235441 2.23772879,5.87603993 3.81634775,5.25519967 C4.11896839,5.13664725 4.45902662,5.17096506 4.73356905,5.34567388 L7.78161398,7.29554908 C8.33381864,7.65120632 8.67387687,8.26268719 8.67387687,8.92096506 L8.67387687,8.92096506 C8.67699667,9.55740433 8.35253744,10.1532862 7.81593178,10.4964642 L4.73356905,12.4712978 C4.45902662,12.6460067 4.11896839,12.6803245 3.81634775,12.561772 C2.23460899,11.9409318 0.5,13.1077371 0.5,14.8267471 C0.5,16.171381 1.58881032,17.2601913 2.93344426,17.2601913 C4.2375208,17.2601913 5.28889351,16.2368968 5.36064892,14.9733777 C5.37936772,14.6489185 5.55407654,14.3525374 5.82549917,14.1778286 L9.36647255,11.9097338 C9.68157238,11.7069468 10.0871464,11.6944676 10.4116057,11.8816556 C10.9076539,12.1624376 11.4785774,12.3215474 12.0869384,12.3215474 C13.9712978,12.3215474 15.5,10.7928453 15.5,8.90848586 C15.5,7.02412646 13.9712978,5.49542429 12.0869384,5.49542429 L12.0869384,5.49542429 Z" id="share" fill="#606060"></path>
    </g>
</svg>