<?xml version="1.0" encoding="UTF-8" standalone="no"?>
<svg width="20px" height="20px" viewBox="0 0 20 20" version="1.1" xmlns="http://www.w3.org/2000/svg" xmlns:xlink="http://www.w3.org/1999/xlink">
    <!-- Generator: Sketch 39.1 (31720) - http://www.bohemiancoding.com/sketch -->
    <title>theme</title>
    <desc>Created with Sketch.</desc>
    <defs></defs>
    <g id="Page-1" stroke="none" stroke-width="1" fill="none" fill-rule="evenodd">
        <path d="M19.0935,18.007 C19.0935,19.107 18.1935,20.007 17.0935,20.007 C15.9935,20.007 15.0935,19.107 15.0935,18.007 C15.0935,16.907 17.0935,14.007 17.0935,14.007 C17.0935,14.007 19.0935,16.907 19.0935,18.007 M2.2895,11.225 L8.0825,5.61 L10.4535,7.981 L11.7865,9.314 L11.7865,9.314 L13.7865,11.313 C13.9915,11.518 14.0935,11.762 14.0925,12.007 L2.0145,12.007 C1.9815,11.731 2.0635,11.451 2.2895,11.225 M15.2005,9.9 L13.2005,7.9 L13.2005,7.9 L5.3005,0 L3.8865,1.414 L6.6685,4.196 L0.8865,9.8 C-0.2955,10.981 -0.2955,12.832 0.8865,14.014 L5.9865,19.114 C6.5505,19.678 7.2845,20 8.0555,20.019 C8.0805,20.019 8.1065,20.02 8.1315,20.02 C8.8825,20.02 9.5795,19.735 10.1005,19.214 L15.2005,14.114 C16.3825,12.933 16.3825,11.082 15.2005,9.9" id="theme" fill="#606060"></path>
    </g>
</svg>
