<?xml version="1.0" encoding="UTF-8" standalone="no"?>
<svg width="17px" height="18px" viewBox="0 0 17 18" version="1.1" xmlns="http://www.w3.org/2000/svg" xmlns:xlink="http://www.w3.org/1999/xlink">
    <!-- Generator: Sketch 39.1 (31720) - http://www.bohemiancoding.com/sketch -->
    <title>trashcan</title>
    <desc>Created with Sketch.</desc>
    <defs></defs>
    <g id="Page-1" stroke="none" stroke-width="1" fill="none" fill-rule="evenodd">
        <path d="M6.03828922,6.39669421 C6.03828922,6.03595041 5.72408467,5.74214876 5.33828922,5.74214876 C4.95249376,5.74214876 4.63828922,6.03595041 4.63828922,6.39669421 L4.63828922,14.3553719 C4.63828922,14.7161157 4.95249376,15.0099174 5.33828922,15.0099174 C5.72408467,15.0099174 6.03828922,14.7161157 6.03828922,14.3553719 L6.03828922,6.39669421 L6.03828922,6.39669421 Z M8.8701074,6.39669421 C8.8701074,6.03595041 8.55590285,5.74214876 8.1701074,5.74214876 C7.78431194,5.74214876 7.4701074,6.03595041 7.4701074,6.39669421 L7.4701074,14.3553719 C7.4701074,14.7161157 7.78431194,15.0099174 8.1701074,15.0099174 C8.55590285,15.0099174 8.8701074,14.7161157 8.8701074,14.3553719 L8.8701074,6.39669421 L8.8701074,6.39669421 Z M11.7059029,6.39669421 C11.7059029,6.03595041 11.3916983,5.74214876 11.0059029,5.74214876 C10.6201074,5.74214876 10.3059029,6.03595041 10.3059029,6.39669421 L10.3059029,14.3553719 C10.3059029,14.7161157 10.6201074,15.0099174 11.0059029,15.0099174 C11.3916983,15.0099174 11.7059029,14.7161157 11.7059029,14.3553719 L11.7059029,6.39669421 L11.7059029,6.39669421 Z M13.5593119,16.4714876 L2.78090285,16.4714876 L2.78090285,4.28429752 L1.14624376,4.28429752 L1.14624376,18 L15.193971,18 L15.193971,4.28429752 L13.5593119,4.28429752 L13.5593119,16.4714876 L13.5593119,16.4714876 L13.5593119,16.4714876 Z M11.6104483,1.22355372 C10.8865847,1.22355372 10.3019256,0.676859504 10.3019256,0 L6.03828922,0 C6.03828922,0.676859504 5.45363013,1.22355372 4.72976649,1.22355372 L0.295107399,1.22355372 L0.295107399,2.9714876 L16.0451074,2.9714876 L16.0451074,1.22355372 L11.6104483,1.22355372 L11.6104483,1.22355372 Z" id="trashcan" fill="#606060"></path>
    </g>
</svg>