<?xml version="1.0" encoding="UTF-8" standalone="no"?>
<svg width="18px" height="24px" viewBox="0 0 18 24" version="1.1" xmlns="http://www.w3.org/2000/svg" xmlns:xlink="http://www.w3.org/1999/xlink">
    <!-- Generator: Sketch 39.1 (31720) - http://www.bohemiancoding.com/sketch -->
    <title>tumblr</title>
    <desc>Created with Sketch.</desc>
    <defs></defs>
    <g id="Page-1" stroke="none" stroke-width="1" fill="none" fill-rule="evenodd">
        <g id="share" transform="translate(-710.000000, -343.000000)" fill="#FFFFFF">
            <g id="Group-7" transform="translate(455.000000, 327.000000)">
                <g id="Group-3" transform="translate(236.000000, 0.000000)">
                    <path d="M35.512,33.489 L35.416,33.421 L32.142,33.421 C31.989,33.421 31.982,32.954 31.979,32.799 L31.979,27.085 C31.979,27.029 32.024,26.984 32.08,26.984 L35.9,26.984 C35.956,26.984 36.001,26.939 36.001,26.883 L36.001,21.117 C36.001,21.062 35.956,21.017 35.9,21.017 L32.097,21.017 C32.042,21.017 31.997,20.972 31.997,20.916 L31.997,16.1 C31.997,16.045 31.952,16 31.896,16 L24.746,16 C24.257,16 23.693,16.362 23.611,17.034 C23.27,19.812 21.729,21.159 19.335,21.959 L19.068,22.048 L19,22.144 L19,26.884 C19,26.94 19.045,26.985 19.1,26.985 L22,26.985 L22,33.141 C22,37.801 25.04,40 31.008,40 C33.409,40 36.056,39.145 36.843,38.109 L37,37.901 L35.512,33.489 L35.512,33.489 Z M35.851,37.747 C35.101,38.468 33.297,39.003 31.823,39.028 L31.658,39.029 C26.809,39.029 25.976,35.328 25.976,33.14 L25.976,26.101 C25.976,26.045 25.931,26 25.876,26 L23.094,26 C23.038,26 22.993,25.955 22.993,25.899 L22.969,22.839 L23.033,22.747 C25.539,21.771 26.938,20.152 27.306,17.154 C27.327,16.987 27.464,16.983 27.465,16.983 L30.912,16.983 C30.967,16.983 31.013,17.028 31.013,17.084 L31.013,21.9 C31.013,21.956 31.058,22.001 31.113,22.001 L34.916,22.001 C34.972,22.001 35.017,22.046 35.017,22.101 L35.017,25.902 C35.017,25.958 34.972,26.003 34.916,26.003 L31.097,26.003 C31.041,26.003 31,26.048 31,26.104 L31,32.809 C31.023,34.247 31.715,34.976 33.065,34.976 C33.609,34.976 34.181,34.85 34.75,34.632 C34.803,34.611 34.861,34.639 34.88,34.693 L35.875,37.643 L35.851,37.747 L35.851,37.747 Z" id="tumblr"></path>
                </g>
            </g>
        </g>
    </g>
</svg>