<?xml version="1.0" encoding="UTF-8" standalone="no"?>
<svg width="22px" height="18px" viewBox="0 0 22 18" version="1.1" xmlns="http://www.w3.org/2000/svg" xmlns:xlink="http://www.w3.org/1999/xlink">
    <!-- Generator: Sketch 39.1 (31720) - http://www.bohemiancoding.com/sketch -->
    <title>twitter</title>
    <desc>Created with Sketch.</desc>
    <defs></defs>
    <g id="Page-1" stroke="none" stroke-width="1" fill="none" fill-rule="evenodd">
        <g id="share" transform="translate(-552.000000, -347.000000)" fill="#FFFFFF">
            <g id="Group-7" transform="translate(455.000000, 327.000000)">
                <g id="Group-5" transform="translate(79.000000, 0.000000)">
                    <path d="M37.4076667,22.827 C38.3399167,22.26875 39.0558333,21.3841667 39.39225,20.33 C38.5205,20.847 37.5543333,21.2228333 36.5258333,21.4254167 C35.7035833,20.5481667 34.5293333,20 33.2313333,20 C30.31725,20 28.1759167,22.7188333 28.8340833,25.54125 C25.084,25.3533333 21.7583333,23.5566667 19.53175,20.8259167 C18.34925,22.8545 18.9185,25.50825 20.9278333,26.8520833 C20.189,26.82825 19.4923333,26.6256667 18.8845833,26.2874167 C18.8350833,28.3783333 20.3338333,30.3345 22.5045,30.7699167 C21.86925,30.94225 21.1735,30.9825833 20.4658333,30.8469167 C21.0396667,32.6399167 22.7061667,33.9443333 24.6825,33.981 C22.785,35.46875 20.3943333,36.1333333 18,35.851 C19.9974167,37.1315833 22.3706667,37.8786667 24.919,37.8786667 C33.2991667,37.8786667 38.03375,30.8010833 37.74775,24.4531667 C38.6295833,23.8160833 39.395,23.0213333 40,22.1165833 C39.1905833,22.4759167 38.3206667,22.7179167 37.4076667,22.827 Z" id="twitter"></path>
                </g>
            </g>
        </g>
    </g>
</svg>