<?xml version="1.0" encoding="UTF-8" standalone="no"?>
<svg width="20px" height="14px" viewBox="0 0 20 14" version="1.1" xmlns="http://www.w3.org/2000/svg" xmlns:xlink="http://www.w3.org/1999/xlink">
    <!-- Generator: Sketch 39.1 (31720) - http://www.bohemiancoding.com/sketch -->
    <title>ui</title>
    <desc>Created with Sketch.</desc>
    <defs></defs>
    <g id="Page-1" stroke="none" stroke-width="1" fill="none" fill-rule="evenodd">
        <path d="M12.8323152,13.2216125 L12.8323152,11.2532355 L15.1905811,11.2532355 L15.1905811,1.96808117 L12.8323152,1.96808117 L12.8323152,0 L20,0 L20,1.96808117 L17.6603707,1.96808117 L17.6603707,11.2532355 L20,11.2532355 L20,13.2216125 L12.8323152,13.2216125 Z M6.74081853,0 L9.21060806,0 L9.21060806,9.04317473 C9.21060806,11.7919212 7.40936858,13.3328403 4.60530403,13.3328403 C1.81987605,13.3328403 0,11.7919212 0,9.04317473 L0,0 L2.46978953,0 L2.46978953,8.91360618 C2.46978953,10.269047 3.15668032,11.0674614 4.60530403,11.0674614 C6.05363191,11.0674614 6.74081853,10.269047 6.74081853,8.91360618 L6.74081853,0 Z" id="ui" fill="#606060"></path>
    </g>
</svg>